<svg width="42" height="42" viewBox="0 0 42 42" fill="none" xmlns="http://www.w3.org/2000/svg">
<rect width="42" height="42" fill="white"/>
<path d="M7.26916 19.6599C6.30369 19.6599 5.5473 19.3217 5 18.6452L5.84863 17.7966C6.2176 18.2701 6.70034 18.5069 7.29684 18.5069C7.91179 18.5069 8.21926 18.2363 8.21926 17.6951C8.21926 17.4738 8.16392 17.3016 8.05322 17.1786C7.94253 17.0556 7.77035 16.9695 7.53667 16.9203L6.94632 16.8096C6.34981 16.6989 5.91013 16.4929 5.62725 16.1916C5.35052 15.8841 5.21216 15.4598 5.21216 14.9186C5.21216 14.2914 5.39664 13.8148 5.76561 13.4889C6.13458 13.163 6.67574 13 7.38908 13C8.2992 13 8.99102 13.2952 9.46453 13.8855L8.6159 14.7342C8.45602 14.5374 8.27461 14.3929 8.07167 14.3006C7.87489 14.2022 7.64121 14.153 7.37063 14.153C7.07545 14.153 6.86022 14.2084 6.72493 14.3191C6.59579 14.4298 6.53122 14.6081 6.53122 14.8541C6.53122 15.0693 6.58042 15.2323 6.67881 15.343C6.78335 15.4536 6.94939 15.5336 7.17692 15.5828L7.76727 15.7027C8.0809 15.7703 8.3484 15.8534 8.56978 15.9518C8.79731 16.044 8.9818 16.1639 9.12324 16.3115C9.27082 16.4591 9.37537 16.6344 9.43686 16.8373C9.5045 17.0402 9.53833 17.277 9.53833 17.5476C9.53833 18.2363 9.34462 18.7621 8.9572 19.1249C8.56978 19.4816 8.0071 19.6599 7.26916 19.6599Z" fill="#181818"/>
<path d="M10.3008 19.5492V18.5069H11.0572V14.153H10.3008V13.1107H13.1327V14.153H12.3763V18.5069H13.1327V19.5492H10.3008Z" fill="#181818"/>
<path d="M18.487 16.1916L18.5608 15.1124H18.4132L18.0166 16.1362L16.9465 18.47L15.8858 16.1362L15.4891 15.1124H15.3415L15.4153 16.1916V19.5492H14.1793V13.1107H15.5629L16.4392 15.0293L16.9189 16.4037H17.0111L17.4908 15.0293L18.3486 13.1107H19.723V19.5492H18.487V16.1916Z" fill="#181818"/>
<path d="M20.9894 19.5492V13.1107H24.9742V14.2637H22.3084V15.7212H24.5684V16.865H22.3084V18.3962H24.9742V19.5492H20.9894Z" fill="#181818"/>
<path d="M28.3856 19.6599C27.9982 19.6599 27.6477 19.6015 27.3341 19.4846C27.0204 19.3617 26.7529 19.1679 26.5315 18.9035C26.3102 18.6329 26.138 18.2886 26.015 17.8704C25.892 17.4461 25.8305 16.9326 25.8305 16.33C25.8305 15.7273 25.892 15.2169 26.015 14.7987C26.138 14.3744 26.3102 14.03 26.5315 13.7656C26.7529 13.495 27.0204 13.3013 27.3341 13.1845C27.6477 13.0615 27.9982 13 28.3856 13C28.773 13 29.1236 13.0615 29.4372 13.1845C29.7508 13.3013 30.0183 13.495 30.2397 13.7656C30.4611 14.03 30.6333 14.3744 30.7562 14.7987C30.8792 15.2169 30.9407 15.7273 30.9407 16.33C30.9407 16.9326 30.8792 17.4461 30.7562 17.8704C30.6333 18.2886 30.4611 18.6329 30.2397 18.9035C30.0183 19.1679 29.7508 19.3617 29.4372 19.4846C29.1236 19.6015 28.773 19.6599 28.3856 19.6599ZM28.3856 18.4976C28.7546 18.4976 29.0375 18.387 29.2342 18.1656C29.4372 17.9442 29.5386 17.6121 29.5386 17.1694V15.4905C29.5386 15.0478 29.4372 14.7157 29.2342 14.4943C29.0375 14.2729 28.7546 14.1623 28.3856 14.1623C28.0166 14.1623 27.7307 14.2729 27.5278 14.4943C27.331 14.7157 27.2326 15.0478 27.2326 15.4905V17.1694C27.2326 17.6121 27.331 17.9442 27.5278 18.1656C27.7307 18.387 28.0166 18.4976 28.3856 18.4976Z" fill="#181818"/>
<path d="M33.6859 16.0993L33.28 15.0755H33.1324L33.2062 16.1547V19.5492H31.9702V13.1107H33.4091L35.0326 16.5606L35.4385 17.5844H35.5861L35.5123 16.5052V13.1107H36.7483V19.5492H35.3093L33.6859 16.0993Z" fill="#181818"/>
<path d="M7.26916 19.6599C6.30369 19.6599 5.5473 19.3217 5 18.6452L5.84863 17.7966C6.2176 18.2701 6.70034 18.5069 7.29684 18.5069C7.91179 18.5069 8.21926 18.2363 8.21926 17.6951C8.21926 17.4738 8.16392 17.3016 8.05322 17.1786C7.94253 17.0556 7.77035 16.9695 7.53667 16.9203L6.94632 16.8096C6.34981 16.6989 5.91013 16.4929 5.62725 16.1916C5.35052 15.8841 5.21216 15.4598 5.21216 14.9186C5.21216 14.2914 5.39664 13.8148 5.76561 13.4889C6.13458 13.163 6.67574 13 7.38908 13C8.2992 13 8.99102 13.2952 9.46453 13.8855L8.6159 14.7342C8.45602 14.5374 8.27461 14.3929 8.07167 14.3006C7.87489 14.2022 7.64121 14.153 7.37063 14.153C7.07545 14.153 6.86022 14.2084 6.72493 14.3191C6.59579 14.4298 6.53122 14.6081 6.53122 14.8541C6.53122 15.0693 6.58042 15.2323 6.67881 15.343C6.78335 15.4536 6.94939 15.5336 7.17692 15.5828L7.76727 15.7027C8.0809 15.7703 8.3484 15.8534 8.56978 15.9518C8.79731 16.044 8.9818 16.1639 9.12324 16.3115C9.27082 16.4591 9.37537 16.6344 9.43686 16.8373C9.5045 17.0402 9.53833 17.277 9.53833 17.5476C9.53833 18.2363 9.34462 18.7621 8.9572 19.1249C8.56978 19.4816 8.0071 19.6599 7.26916 19.6599Z" stroke="#181818" stroke-width="0.457495"/>
<path d="M10.3008 19.5492V18.5069H11.0572V14.153H10.3008V13.1107H13.1327V14.153H12.3763V18.5069H13.1327V19.5492H10.3008Z" stroke="#181818" stroke-width="0.457495"/>
<path d="M18.487 16.1916L18.5608 15.1124H18.4132L18.0166 16.1362L16.9465 18.47L15.8858 16.1362L15.4891 15.1124H15.3415L15.4153 16.1916V19.5492H14.1793V13.1107H15.5629L16.4392 15.0293L16.9189 16.4037H17.0111L17.4908 15.0293L18.3486 13.1107H19.723V19.5492H18.487V16.1916Z" stroke="#181818" stroke-width="0.457495"/>
<path d="M20.9894 19.5492V13.1107H24.9742V14.2637H22.3084V15.7212H24.5684V16.865H22.3084V18.3962H24.9742V19.5492H20.9894Z" stroke="#181818" stroke-width="0.457495"/>
<path d="M28.3856 19.6599C27.9982 19.6599 27.6477 19.6015 27.3341 19.4846C27.0204 19.3617 26.7529 19.1679 26.5315 18.9035C26.3102 18.6329 26.138 18.2886 26.015 17.8704C25.892 17.4461 25.8305 16.9326 25.8305 16.33C25.8305 15.7273 25.892 15.2169 26.015 14.7987C26.138 14.3744 26.3102 14.03 26.5315 13.7656C26.7529 13.495 27.0204 13.3013 27.3341 13.1845C27.6477 13.0615 27.9982 13 28.3856 13C28.773 13 29.1236 13.0615 29.4372 13.1845C29.7508 13.3013 30.0183 13.495 30.2397 13.7656C30.4611 14.03 30.6333 14.3744 30.7562 14.7987C30.8792 15.2169 30.9407 15.7273 30.9407 16.33C30.9407 16.9326 30.8792 17.4461 30.7562 17.8704C30.6333 18.2886 30.4611 18.6329 30.2397 18.9035C30.0183 19.1679 29.7508 19.3617 29.4372 19.4846C29.1236 19.6015 28.773 19.6599 28.3856 19.6599ZM28.3856 18.4976C28.7546 18.4976 29.0375 18.387 29.2342 18.1656C29.4372 17.9442 29.5386 17.6121 29.5386 17.1694V15.4905C29.5386 15.0478 29.4372 14.7157 29.2342 14.4943C29.0375 14.2729 28.7546 14.1623 28.3856 14.1623C28.0166 14.1623 27.7307 14.2729 27.5278 14.4943C27.331 14.7157 27.2326 15.0478 27.2326 15.4905V17.1694C27.2326 17.6121 27.331 17.9442 27.5278 18.1656C27.7307 18.387 28.0166 18.4976 28.3856 18.4976Z" stroke="#181818" stroke-width="0.457495"/>
<path d="M33.6859 16.0993L33.28 15.0755H33.1324L33.2062 16.1547V19.5492H31.9702V13.1107H33.4091L35.0326 16.5606L35.4385 17.5844H35.5861L35.5123 16.5052V13.1107H36.7483V19.5492H35.3093L33.6859 16.0993Z" stroke="#181818" stroke-width="0.457495"/>
<path d="M8.07474 29.1732V28.1309H8.83113V23.7771H8.07474V22.7347H10.9066V23.7771H10.1502V28.1309H10.9066V29.1732H8.07474Z" fill="#181818"/>
<path d="M13.3368 29.1732V26.7473L11.372 22.7347H12.811L13.9548 25.3728H14.1024L15.2093 22.7347H16.6206L14.6559 26.7473V29.1732H13.3368Z" fill="#181818"/>
<path d="M19.2593 29.2839C18.8719 29.2839 18.5214 29.2255 18.2078 29.1087C17.8942 28.9857 17.6267 28.792 17.4053 28.5275C17.1839 28.257 17.0117 27.9126 16.8887 27.4944C16.7657 27.0701 16.7042 26.5566 16.7042 25.954C16.7042 25.3513 16.7657 24.8409 16.8887 24.4228C17.0117 23.9984 17.1839 23.6541 17.4053 23.3896C17.6267 23.1191 17.8942 22.9253 18.2078 22.8085C18.5214 22.6855 18.8719 22.624 19.2593 22.624C19.6468 22.624 19.9973 22.6855 20.3109 22.8085C20.6245 22.9253 20.892 23.1191 21.1134 23.3896C21.3348 23.6541 21.507 23.9984 21.63 24.4228C21.753 24.8409 21.8145 25.3513 21.8145 25.954C21.8145 26.5566 21.753 27.0701 21.63 27.4944C21.507 27.9126 21.3348 28.257 21.1134 28.5275C20.892 28.792 20.6245 28.9857 20.3109 29.1087C19.9973 29.2255 19.6468 29.2839 19.2593 29.2839ZM19.2593 28.1217C19.6283 28.1217 19.9112 28.011 20.108 27.7896C20.3109 27.5682 20.4124 27.2361 20.4124 26.7934V25.1146C20.4124 24.6718 20.3109 24.3397 20.108 24.1184C19.9112 23.897 19.6283 23.7863 19.2593 23.7863C18.8904 23.7863 18.6044 23.897 18.4015 24.1184C18.2047 24.3397 18.1063 24.6718 18.1063 25.1146V26.7934C18.1063 27.2361 18.2047 27.5682 18.4015 27.7896C18.6044 28.011 18.8904 28.1217 19.2593 28.1217Z" fill="#181818"/>
<path d="M26.303 26.489H24.163V29.1732H22.8439V22.7347H24.163V25.3452H26.303V22.7347H27.6221V29.1732H26.303V26.489Z" fill="#181818"/>
<path d="M32.4675 29.1732L32.0709 27.5959H30.0969L29.7002 29.1732H28.4365L30.2629 22.7347H31.9417L33.7681 29.1732H32.4675ZM31.3514 25.05L31.1485 23.9339H31.0009L30.7979 25.05L30.4197 26.5351H31.748L31.3514 25.05Z" fill="#181818"/>
<path d="M8.07474 29.1732V28.1309H8.83113V23.7771H8.07474V22.7347H10.9066V23.7771H10.1502V28.1309H10.9066V29.1732H8.07474Z" stroke="#181818" stroke-width="0.457495"/>
<path d="M13.3368 29.1732V26.7473L11.372 22.7347H12.811L13.9548 25.3728H14.1024L15.2093 22.7347H16.6206L14.6559 26.7473V29.1732H13.3368Z" stroke="#181818" stroke-width="0.457495"/>
<path d="M19.2593 29.2839C18.8719 29.2839 18.5214 29.2255 18.2078 29.1087C17.8942 28.9857 17.6267 28.792 17.4053 28.5275C17.1839 28.257 17.0117 27.9126 16.8887 27.4944C16.7657 27.0701 16.7042 26.5566 16.7042 25.954C16.7042 25.3513 16.7657 24.8409 16.8887 24.4228C17.0117 23.9984 17.1839 23.6541 17.4053 23.3896C17.6267 23.1191 17.8942 22.9253 18.2078 22.8085C18.5214 22.6855 18.8719 22.624 19.2593 22.624C19.6468 22.624 19.9973 22.6855 20.3109 22.8085C20.6245 22.9253 20.892 23.1191 21.1134 23.3896C21.3348 23.6541 21.507 23.9984 21.63 24.4228C21.753 24.8409 21.8145 25.3513 21.8145 25.954C21.8145 26.5566 21.753 27.0701 21.63 27.4944C21.507 27.9126 21.3348 28.257 21.1134 28.5275C20.892 28.792 20.6245 28.9857 20.3109 29.1087C19.9973 29.2255 19.6468 29.2839 19.2593 29.2839ZM19.2593 28.1217C19.6283 28.1217 19.9112 28.011 20.108 27.7896C20.3109 27.5682 20.4124 27.2361 20.4124 26.7934V25.1146C20.4124 24.6718 20.3109 24.3397 20.108 24.1184C19.9112 23.897 19.6283 23.7863 19.2593 23.7863C18.8904 23.7863 18.6044 23.897 18.4015 24.1184C18.2047 24.3397 18.1063 24.6718 18.1063 25.1146V26.7934C18.1063 27.2361 18.2047 27.5682 18.4015 27.7896C18.6044 28.011 18.8904 28.1217 19.2593 28.1217Z" stroke="#181818" stroke-width="0.457495"/>
<path d="M26.303 26.489H24.163V29.1732H22.8439V22.7347H24.163V25.3452H26.303V22.7347H27.6221V29.1732H26.303V26.489Z" stroke="#181818" stroke-width="0.457495"/>
<path d="M32.4675 29.1732L32.0709 27.5959H30.0969L29.7002 29.1732H28.4365L30.2629 22.7347H31.9417L33.7681 29.1732H32.4675ZM31.3514 25.05L31.1485 23.9339H31.0009L30.7979 25.05L30.4197 26.5351H31.748L31.3514 25.05Z" stroke="#181818" stroke-width="0.457495"/>
</svg>
