<svg width="75" height="101" viewBox="0 0 75 101" fill="none" xmlns="http://www.w3.org/2000/svg">
<path d="M0.84248 63.5618C0.84248 62.5405 1.21872 61.5193 2.02498 60.713C3.58373 59.1543 6.16372 59.1543 7.72247 60.713L37.5 90.4905L67.2775 60.713C68.8362 59.1543 71.4162 59.1543 72.975 60.713C74.5337 62.2718 74.5337 64.8518 72.975 66.4105L40.3487 99.0368C38.79 100.596 36.21 100.596 34.6512 99.0368L2.02498 66.4105C1.21872 65.6043 0.84248 64.583 0.84248 63.5618Z" fill="white"/>
<path d="M33.4687 95.2737L33.4687 4.8125C33.4687 2.60875 35.2962 0.78125 37.5 0.78125C39.7037 0.78125 41.5312 2.60875 41.5312 4.8125L41.5313 95.2737C41.5313 97.4775 39.7037 99.305 37.5 99.305C35.2962 99.305 33.4687 97.4775 33.4687 95.2737Z" fill="white"/>
</svg>
