<svg width="22" height="14" viewBox="0 0 22 14" fill="none" xmlns="http://www.w3.org/2000/svg">
<path d="M6.3993 0C7.03397 0 7.62096 0.0496609 8.1573 0.196657C8.69463 0.294986 9.13463 0.491643 9.52496 0.736968C9.91629 0.983286 10.2093 1.32694 10.404 1.76892C10.5996 2.2109 10.698 2.75221 10.698 3.34119C10.698 4.02949 10.551 4.61846 10.2093 5.06045C9.91629 5.50342 9.42763 5.89574 8.84163 6.19073C9.67196 6.43705 10.3066 6.87903 10.698 7.469C11.0883 8.05798 11.3326 8.79494 11.3326 9.63024C11.3326 10.3185 11.1856 10.9075 10.9413 11.3992C10.698 11.8908 10.3066 12.3328 9.86663 12.6278C9.38866 12.9439 8.86033 13.1764 8.3043 13.3151C7.7183 13.4631 7.1323 13.5614 6.5463 13.5614H0V0H6.3993ZM6.00798 5.50243C6.54531 5.50243 6.9853 5.35543 7.32697 5.11011C7.66864 4.86478 7.81563 4.42181 7.81563 3.8815C7.81563 3.58651 7.76597 3.29252 7.66864 3.09586C7.5713 2.8992 7.4243 2.75121 7.22963 2.60422C7.03397 2.50589 6.83831 2.40756 6.59397 2.35889C6.34964 2.30923 6.1063 2.30923 5.81231 2.30923H2.97965V5.50342H6.00897L6.00798 5.50243ZM6.15497 11.3008C6.44797 11.3008 6.74097 11.2512 6.9853 11.2025C7.22963 11.1528 7.47397 11.0555 7.66864 10.9075C7.86766 10.7637 8.03417 10.5796 8.1573 10.3672C8.25464 10.1219 8.35296 9.8269 8.35296 9.48325C8.35296 8.79495 8.1573 8.3033 7.76696 7.95965C7.37564 7.66466 6.83831 7.51767 6.20364 7.51767H2.97965V11.3018L6.15497 11.3008ZM15.5826 11.2512C15.9729 11.6445 16.5589 11.8411 17.3406 11.8411C17.8779 11.8411 18.3666 11.6941 18.7569 11.4488C19.1483 11.1538 19.3926 10.8589 19.4899 10.5649H21.8836C21.4922 11.7428 20.9062 12.5781 20.1256 13.1194C19.3429 13.6101 18.4153 13.9051 17.2919 13.9051C16.5732 13.9073 15.8605 13.7738 15.1913 13.5117C14.5891 13.2859 14.052 12.9147 13.6279 12.4311C13.1743 11.9788 12.839 11.4218 12.6516 10.8092C12.4073 10.1706 12.309 9.48325 12.309 8.69662C12.309 7.95965 12.4073 7.27234 12.6516 6.63271C12.8869 6.01728 13.2349 5.45108 13.6776 4.96311C14.1237 4.50508 14.6542 4.13778 15.2399 3.8815C15.8922 3.61935 16.589 3.48579 17.2919 3.48818C18.1223 3.48818 18.8552 3.63617 19.4899 3.97982C20.1256 4.32348 20.6132 4.71679 21.0036 5.30676C21.3949 5.84707 21.6889 6.48571 21.8836 7.17401C21.9809 7.86132 22.0296 8.54962 21.9809 9.33526H14.8983C14.8983 10.1219 15.1913 10.8589 15.5826 11.2522V11.2512ZM18.6596 6.0924C18.3179 5.74875 17.7806 5.55209 17.1449 5.55209C16.7059 5.55209 16.3633 5.65141 16.0703 5.79841C15.7773 5.9454 15.5826 6.14206 15.3869 6.33872C15.2068 6.52859 15.0875 6.76791 15.0443 7.02602C14.9956 7.27234 14.9469 7.469 14.9469 7.66466H19.3429C19.2456 6.9277 19.0013 6.43705 18.6596 6.0924ZM14.3609 0.933625H19.8316V2.26056H14.3619V0.933625H14.3609Z" fill="white"/>
</svg>
