<svg width="19" height="19" viewBox="0 0 19 19" fill="none" xmlns="http://www.w3.org/2000/svg">
<path d="M9.5 0C8.25244 0 7.0171 0.245725 5.86451 0.723144C4.71191 1.20056 3.66464 1.90033 2.78249 2.78249C1.00089 4.56408 0 6.98044 0 9.5C0 13.699 2.7265 17.2615 6.498 18.525C6.973 18.601 7.125 18.3065 7.125 18.05V16.4445C4.4935 17.0145 3.933 15.1715 3.933 15.1715C3.496 14.0695 2.8785 13.775 2.8785 13.775C2.014 13.186 2.945 13.205 2.945 13.205C3.895 13.2715 4.3985 14.1835 4.3985 14.1835C5.225 15.6275 6.6215 15.2 7.163 14.972C7.2485 14.3545 7.4955 13.9365 7.7615 13.699C5.6525 13.4615 3.439 12.6445 3.439 9.025C3.439 7.9705 3.8 7.125 4.4175 6.4505C4.3225 6.213 3.99 5.225 4.5125 3.9425C4.5125 3.9425 5.3105 3.686 7.125 4.9115C7.8755 4.7025 8.6925 4.598 9.5 4.598C10.3075 4.598 11.1245 4.7025 11.875 4.9115C13.6895 3.686 14.4875 3.9425 14.4875 3.9425C15.01 5.225 14.6775 6.213 14.5825 6.4505C15.2 7.125 15.561 7.9705 15.561 9.025C15.561 12.654 13.338 13.452 11.2195 13.6895C11.5615 13.984 11.875 14.5635 11.875 15.447V18.05C11.875 18.3065 12.027 18.6105 12.5115 18.525C16.283 17.252 19 13.699 19 9.5C19 8.25244 18.7543 7.0171 18.2769 5.86451C17.7994 4.71191 17.0997 3.66464 16.2175 2.78249C15.3354 1.90033 14.2881 1.20056 13.1355 0.723144C11.9829 0.245725 10.7476 0 9.5 0Z" fill="white"/>
</svg>
