<svg width="22" height="17" viewBox="0 0 22 17" fill="none" xmlns="http://www.w3.org/2000/svg">
<path d="M21.2697 0H0.730288C0.536625 0.000219856 0.350962 0.0748547 0.214048 0.207524C0.0771341 0.340194 0.000154139 0.520059 2.91335e-06 0.707645V2.13124C2.91335e-06 2.19683 0.0734315 2.2721 0.133431 2.30254L10.9294 8.2756C10.9571 8.29091 10.9884 8.29883 11.0203 8.29857C11.0528 8.29866 11.0848 8.29024 11.1129 8.27422L21.5826 2.30836C21.6414 2.27653 21.7974 2.1924 21.856 2.15365C21.9269 2.10688 22 2.06454 22 1.98069V0.707369C21.9998 0.51983 21.9228 0.340036 21.7859 0.207426C21.6489 0.0748168 21.4633 0.000219729 21.2697 0ZM21.9089 4.2777C21.8807 4.26217 21.8489 4.2541 21.8166 4.25429C21.7842 4.25449 21.7525 4.26294 21.7246 4.2788L15.7997 7.65541C15.7761 7.66873 15.7559 7.68704 15.7406 7.70896C15.7253 7.73088 15.7153 7.75586 15.7113 7.78205C15.7073 7.80823 15.7095 7.83495 15.7176 7.86022C15.7257 7.88549 15.7396 7.90865 15.7583 7.928L21.684 14.1153C21.701 14.1331 21.7216 14.1474 21.7446 14.1571C21.7675 14.1668 21.7924 14.1718 21.8174 14.1717C21.8658 14.1716 21.9122 14.153 21.9464 14.1198C21.9807 14.0867 21.9999 14.0418 22 13.9949V4.43129C22.0001 4.40018 21.9918 4.36959 21.9758 4.34262C21.9597 4.31565 21.9367 4.29325 21.9089 4.2777ZM14.0923 8.78924C14.0642 8.75957 14.0264 8.74015 13.9852 8.7342C13.9441 8.72826 13.9021 8.73616 13.8663 8.75659L11.4914 10.1102C11.3523 10.188 11.1946 10.2295 11.0339 10.2305C10.8732 10.2316 10.715 10.1921 10.5749 10.116L8.48486 8.95944C8.45112 8.94083 8.41213 8.9331 8.37356 8.93738C8.33498 8.94166 8.29881 8.95772 8.27029 8.98324L0.333717 16.1139C0.312911 16.1328 0.296936 16.1561 0.287065 16.1819C0.277195 16.2078 0.273703 16.2356 0.276866 16.263C0.28003 16.2904 0.289762 16.3167 0.305287 16.3399C0.320813 16.363 0.341701 16.3823 0.366288 16.3962C0.489717 16.4665 0.60886 16.5 0.730003 16.5H21.0594C21.095 16.5001 21.1298 16.49 21.1595 16.4711C21.1893 16.4521 21.2126 16.4251 21.2266 16.3935C21.2408 16.362 21.2452 16.3271 21.2392 16.2932C21.2332 16.2593 21.2171 16.2279 21.1929 16.2028L14.0923 8.78924ZM6.524 8.13972C6.54502 8.12089 6.56118 8.09754 6.57117 8.07155C6.58115 8.04557 6.58469 8.01767 6.58149 7.99011C6.57829 7.96255 6.56845 7.93611 6.55275 7.91292C6.53706 7.88973 6.51596 7.87044 6.49115 7.8566L0.272289 4.41607C0.244535 4.40081 0.213131 4.39287 0.181216 4.39305C0.149302 4.39323 0.117996 4.40153 0.0904295 4.41711C0.0628631 4.43268 0.0400023 4.455 0.0241333 4.48182C0.00826438 4.50864 -5.64266e-05 4.53903 2.91335e-06 4.56994V13.5975C-0.00019845 13.6319 0.0100425 13.6657 0.0294581 13.6946C0.0488737 13.7235 0.0766116 13.7463 0.109239 13.7601C0.141866 13.7738 0.17795 13.778 0.213024 13.7722C0.248099 13.7663 0.280624 13.7506 0.306574 13.727L6.524 8.13972Z" fill="white"/>
</svg>
