<svg width="48" height="24" viewBox="0 0 48 24" fill="none" xmlns="http://www.w3.org/2000/svg">
<path fill-rule="evenodd" clip-rule="evenodd" d="M2.24906 21.0813C-0.749688 18.1209 -0.749688 13.2802 2.24906 10.3198L10.4057 2.2386C12.9246 -0.281765 16.803 -0.681822 19.7618 1.07843C20.6814 1.59851 20.6814 2.83868 19.9217 3.59879C19.162 4.3589 17.9625 4.27889 16.9229 3.99885C15.6035 3.6388 14.1641 3.95884 13.1245 4.95899L4.96793 13.0001C3.44856 14.4804 3.44856 16.9207 4.96793 18.4009C6.4873 19.8811 8.8863 19.8811 10.4057 18.4009L26.7189 2.2386C29.7176 -0.721828 34.5956 -0.721828 37.5943 2.2386L45.7509 10.3198C48.7497 13.2802 48.7497 18.1209 45.7509 21.0813C42.7522 24.0417 37.8742 24.0417 34.8755 21.0813L32.1566 18.4009L28.758 21.7614C26.2391 24.2818 22.3607 24.6818 19.4019 22.9216C18.4823 22.4015 18.4823 21.1613 19.242 20.4012C20.0017 19.6411 21.2012 19.7211 22.2407 20.0012C23.5602 20.3612 24.9996 20.0412 26.0391 19.041L29.5177 15.5605C30.9571 14.1203 33.3161 14.1203 34.7555 15.5605L37.5544 18.3609C39.0737 19.8411 41.4727 19.8411 42.9921 18.3609C44.5115 16.8807 44.5115 14.4404 42.9921 12.9601L34.8755 4.91898C33.3561 3.43877 30.9571 3.43877 29.4377 4.91898L13.1245 21.0813C10.1258 24.0817 5.24781 24.0817 2.24906 21.0813Z" fill="white"/>
</svg>
