<svg width="100" height="100" viewBox="0 0 100 100" fill="none" xmlns="http://www.w3.org/2000/svg">
<g id="miro">
<g id="miro_2">
<path id="Vector" d="M21.6632 0H78.3368C90.293 0 100 9.70701 100 21.6632V78.3368C100 90.293 90.293 100 78.3368 100H21.6632C9.70702 100 0 90.293 0 78.3368V21.6632C0 9.70701 9.70702 0 21.6632 0Z" fill="#FFD02F"/>
<path id="Vector_2" d="M69.488 12.489H58.5085L67.6532 28.5589L47.5289 12.489H36.5493L46.6115 32.1398L25.5697 12.489H14.5901L25.5697 37.4964L14.5901 87.5112H25.5697L46.6115 33.9155L36.5493 87.5112H47.5289L67.6532 30.3641L58.5085 87.5112H69.488L89.6123 24.9779L69.488 12.489Z" fill="#050038"/>
</g>
</g>
</svg>
