<svg width="24" height="24" viewBox="0 0 24 24" fill="none" xmlns="http://www.w3.org/2000/svg">
<path d="M12.4651 22.5001L11.9019 22.3133C11.9019 22.3133 11.9769 19.4633 10.9456 19.2631C10.2706 18.4771 11.0454 -14.2927 13.5129 19.1513C13.0447 19.3888 12.6865 19.7981 12.5131 20.2936C12.4202 21.0254 12.4041 21.7649 12.4651 22.5001Z" fill="url(#paint0_linear_521_9)"/>
<path d="M12.7695 19.7467C14.2692 18.6178 15.4177 17.0864 16.0815 15.3306C16.7453 13.5748 16.8972 11.6666 16.5195 9.82794C15.417 4.96419 12.8063 3.36519 12.525 2.75469C12.2823 2.37454 12.0752 1.97284 11.9062 1.55469L12.114 15.1064C12.114 15.1064 11.6835 19.2479 12.7695 19.7467Z" fill="url(#paint1_linear_521_9)"/>
<path d="M11.6154 19.9268C11.6154 19.9268 7.02464 16.8 7.29014 11.2687C7.31491 9.60123 7.69724 7.95845 8.41132 6.45136C9.12541 4.94428 10.1546 3.60799 11.4294 2.53275C11.5784 2.40618 11.6967 2.24751 11.7756 2.06864C11.8544 1.88976 11.8917 1.69535 11.8846 1.5C12.1704 2.115 12.1239 10.6823 12.1539 11.6843C12.2701 15.582 11.9371 19.191 11.6154 19.9268Z" fill="url(#paint2_linear_521_9)"/>
<defs>
<linearGradient id="paint0_linear_521_9" x1="8.67885" y1="12.1893" x2="15.1526" y2="14.3862" gradientUnits="userSpaceOnUse">
<stop offset="0.231" stop-color="#999875"/>
<stop offset="0.563" stop-color="#9B9977"/>
<stop offset="0.683" stop-color="#A09F7E"/>
<stop offset="0.768" stop-color="#A9A889"/>
<stop offset="0.837" stop-color="#B7B69A"/>
<stop offset="0.896" stop-color="#C9C7B0"/>
<stop offset="0.948" stop-color="#DEDDCB"/>
<stop offset="0.994" stop-color="#F8F6EB"/>
<stop offset="1" stop-color="#FBF9EF"/>
</linearGradient>
<linearGradient id="paint1_linear_521_9" x1="11.0527" y1="1.45785" x2="13.9147" y2="19.3296" gradientUnits="userSpaceOnUse">
<stop stop-color="#48A547"/>
<stop offset="1" stop-color="#3F9143"/>
</linearGradient>
<linearGradient id="paint2_linear_521_9" x1="6.89524" y1="11.8163" x2="14.5757" y2="9.24408" gradientUnits="userSpaceOnUse">
<stop stop-color="#41A247"/>
<stop offset="0.352" stop-color="#4BA74B"/>
<stop offset="0.956" stop-color="#67B554"/>
<stop offset="1" stop-color="#69B655"/>
</linearGradient>
</defs>
</svg>
