<svg width="24" height="24" viewBox="0 0 24 24" fill="none" xmlns="http://www.w3.org/2000/svg">
<path d="M12.5547 0.154987C12.3824 0.0563099 12.1874 0.00439453 11.9889 0.00439453C11.7904 0.00439453 11.5953 0.0563099 11.4231 0.154987L2.08186 5.5803C1.72654 5.7813 1.52686 6.16061 1.52686 6.5628V17.4356C1.52686 17.8374 1.74867 18.2169 2.08148 18.418L11.4227 23.8432C11.595 23.9419 11.7901 23.9938 11.9886 23.9938C12.1871 23.9938 12.3822 23.9419 12.5545 23.8432L21.8957 18.4179C22.2509 18.2169 22.4504 17.8374 22.4504 17.4354V6.5628C22.4504 6.1608 22.2285 5.78149 21.8957 5.5803L12.5547 0.154987Z" fill="url(#paint0_linear_521_3)"/>
<path d="M21.9181 5.57984L12.5326 0.154531C12.4404 0.107691 12.3438 0.0703121 12.2441 0.0429688L1.72681 18.1495C1.81379 18.2564 1.91897 18.3472 2.03749 18.4176L11.4232 23.8427C11.6894 23.9989 11.9999 24.0437 12.2885 23.9543L22.1622 5.78084C22.0974 5.69595 22.0139 5.62717 21.9181 5.57984Z" fill="url(#paint1_linear_521_3)"/>
<path d="M21.9184 18.4172C22.1847 18.261 22.3843 17.9931 22.473 17.7029L12.1999 0.0202985C11.9337 -0.0243265 11.6451 -0.00201398 11.4012 0.154361L2.08203 5.55736L12.1332 23.9989C12.2663 23.9764 12.4219 23.9318 12.555 23.8649L21.9184 18.4172Z" fill="url(#paint2_linear_521_3)"/>
<defs>
<linearGradient id="paint0_linear_521_3" x1="15.793" y1="4.19515" x2="7.26197" y2="21.4902" gradientUnits="userSpaceOnUse">
<stop stop-color="#3F873F"/>
<stop offset="0.33" stop-color="#3F8B3D"/>
<stop offset="0.637" stop-color="#3E9638"/>
<stop offset="0.934" stop-color="#3DA92E"/>
<stop offset="1" stop-color="#3DAE2B"/>
</linearGradient>
<linearGradient id="paint1_linear_521_3" x1="10.5694" y1="13.2684" x2="34.3717" y2="-4.20987" gradientUnits="userSpaceOnUse">
<stop offset="0.138" stop-color="#3F873F"/>
<stop offset="0.402" stop-color="#52A044"/>
<stop offset="0.713" stop-color="#64B749"/>
<stop offset="0.908" stop-color="#6ABF4B"/>
</linearGradient>
<linearGradient id="paint2_linear_521_3" x1="1.18497" y1="11.9952" x2="22.8" y2="11.9952" gradientUnits="userSpaceOnUse">
<stop offset="0.092" stop-color="#6ABF4B"/>
<stop offset="0.287" stop-color="#64B749"/>
<stop offset="0.598" stop-color="#52A044"/>
<stop offset="0.862" stop-color="#3F873F"/>
</linearGradient>
</defs>
</svg>
