<svg width="99" height="100" viewBox="0 0 99 100" fill="none" xmlns="http://www.w3.org/2000/svg">
<path d="M92.0601 40.9375C93.3101 37.5 93.6226 34.0625 93.3101 30.625C92.9976 27.1875 91.7476 23.75 90.1851 20.625C87.3726 15.9375 83.3101 12.1875 78.6226 10C73.6226 7.8125 68.3101 7.1875 62.9976 8.4375C60.4976 5.9375 57.6851 3.75 54.5601 2.1875C51.4351 0.625 47.6851 0 44.2476 0C38.9351 0 33.6226 1.5625 29.2476 4.6875C24.8726 7.8125 21.7476 12.1875 20.1851 17.1875C16.4351 18.125 13.3101 19.6875 10.1851 21.5625C7.37257 23.75 5.18507 26.5625 3.31007 29.375C0.497572 34.0625 -0.439928 39.375 0.185072 44.6875C0.810072 50 2.99757 55 6.43507 59.0625C5.18507 62.5 4.87257 65.9375 5.18507 69.375C5.49757 72.8125 6.74757 76.25 8.31007 79.375C11.1226 84.0625 15.1851 87.8125 19.8726 90C24.8726 92.1875 30.1851 92.8125 35.4976 91.5625C37.9976 94.0625 40.8101 96.25 43.9351 97.8125C47.0601 99.375 50.8101 100 54.2476 100C59.5601 100 64.8726 98.4375 69.2476 95.3125C73.6226 92.1875 76.7476 87.8125 78.3101 82.8125C81.7476 82.1875 85.1851 80.625 87.9976 78.4375C90.8101 76.25 93.3101 73.75 94.8726 70.625C97.6851 65.9375 98.6226 60.625 97.9976 55.3125C97.3726 50 95.4976 45 92.0601 40.9375ZM54.5601 93.4375C49.5601 93.4375 45.8101 91.875 42.3726 89.0625C42.3726 89.0625 42.6851 88.75 42.9976 88.75L62.9976 77.1875C63.6226 76.875 63.9351 76.5625 64.2476 75.9375C64.5601 75.3125 64.5601 75 64.5601 74.375V46.25L72.9976 51.25V74.375C73.3101 85.3125 64.5601 93.4375 54.5601 93.4375ZM14.2476 76.25C12.0601 72.5 11.1226 68.125 12.0601 63.75C12.0601 63.75 12.3726 64.0625 12.6851 64.0625L32.6851 75.625C33.3101 75.9375 33.6226 75.9375 34.2476 75.9375C34.8726 75.9375 35.4976 75.9375 35.8101 75.625L60.1851 61.5625V71.25L39.8726 83.125C35.4976 85.625 30.4976 86.25 25.8101 85C20.8101 83.75 16.7476 80.625 14.2476 76.25ZM8.93507 32.8125C11.1226 29.0625 14.5601 26.25 18.6226 24.6875V25.3125V48.4375C18.6226 49.0625 18.6226 49.6875 18.9351 50C19.2476 50.625 19.5601 50.9375 20.1851 51.25L44.5601 65.3125L36.1226 70.3125L16.1226 58.75C11.7476 56.25 8.62257 52.1875 7.37257 47.5C6.12257 42.8125 6.43507 37.1875 8.93507 32.8125ZM77.9976 48.75L53.6226 34.6875L62.0601 29.6875L82.0601 41.25C85.1851 43.125 87.6851 45.625 89.2476 48.75C90.8101 51.875 91.7476 55.3125 91.4351 59.0625C91.1226 62.5 89.8726 65.9375 87.6851 68.75C85.4976 71.5625 82.6851 73.75 79.2476 75V51.25C79.2476 50.625 79.2476 50 78.9351 49.6875C78.9351 49.6875 78.6226 49.0625 77.9976 48.75ZM86.4351 36.25C86.4351 36.25 86.1226 35.9375 85.8101 35.9375L65.8101 24.375C65.1851 24.0625 64.8726 24.0625 64.2476 24.0625C63.6226 24.0625 62.9976 24.0625 62.6851 24.375L38.3101 38.4375V28.75L58.6226 16.875C61.7476 15 65.1851 14.375 68.9351 14.375C72.3726 14.375 75.8101 15.625 78.9351 17.8125C81.7476 20 84.2476 22.8125 85.4976 25.9375C86.7476 29.0625 87.0601 32.8125 86.4351 36.25ZM33.9351 53.75L25.4976 48.75V25.3125C25.4976 21.875 26.4351 18.125 28.3101 15.3125C30.1851 12.1875 32.9976 10 36.1226 8.4375C39.2476 6.875 42.9976 6.25 46.4351 6.875C49.8726 7.1875 53.3101 8.75 56.1226 10.9375C56.1226 10.9375 55.8101 11.25 55.4976 11.25L35.4976 22.8125C34.8726 23.125 34.5601 23.4375 34.2476 24.0625C33.9351 24.6875 33.9351 25 33.9351 25.625V53.75ZM38.3101 43.75L49.2476 37.5L60.1851 43.75V56.25L49.2476 62.5L38.3101 56.25V43.75Z" fill="white"/>
</svg>
