<svg width="15" height="15" viewBox="0 0 15 15" fill="none" xmlns="http://www.w3.org/2000/svg">
<path d="M11.925 6.675C9.525 5.25 5.5125 5.1 3.225 5.8125C2.85 5.925 2.475 5.7 2.3625 5.3625C2.25 4.9875 2.475 4.6125 2.8125 4.5C5.475 3.7125 9.8625 3.8625 12.6375 5.5125C12.975 5.7 13.0875 6.15 12.9 6.4875C12.7125 6.75 12.2625 6.8625 11.925 6.675ZM11.85 8.775C11.6625 9.0375 11.325 9.15 11.0625 8.9625C9.0375 7.725 5.9625 7.35 3.6 8.1C3.3 8.175 2.9625 8.025 2.8875 7.725C2.8125 7.425 2.9625 7.0875 3.2625 7.0125C6 6.1875 9.375 6.6 11.7 8.025C11.925 8.1375 12.0375 8.5125 11.85 8.775ZM10.95 10.8375C10.8 11.0625 10.5375 11.1375 10.3125 10.9875C8.55 9.9 6.3375 9.675 3.7125 10.275C3.45 10.35 3.225 10.1625 3.15 9.9375C3.075 9.675 3.2625 9.45 3.4875 9.375C6.3375 8.7375 8.8125 9 10.7625 10.2C11.025 10.3125 11.0625 10.6125 10.95 10.8375ZM7.5 0C6.51509 0 5.53982 0.193993 4.62987 0.570904C3.71993 0.947814 2.89314 1.50026 2.1967 2.1967C0.790176 3.60322 0 5.51088 0 7.5C0 9.48912 0.790176 11.3968 2.1967 12.8033C2.89314 13.4997 3.71993 14.0522 4.62987 14.4291C5.53982 14.806 6.51509 15 7.5 15C9.48912 15 11.3968 14.2098 12.8033 12.8033C14.2098 11.3968 15 9.48912 15 7.5C15 6.51509 14.806 5.53982 14.4291 4.62987C14.0522 3.71993 13.4997 2.89314 12.8033 2.1967C12.1069 1.50026 11.2801 0.947814 10.3701 0.570904C9.46018 0.193993 8.48491 0 7.5 0Z" fill="white"/>
</svg>
