<svg width="12" height="8" viewBox="0 0 12 8" fill="none" xmlns="http://www.w3.org/2000/svg">
<path d="M4.59505 0C3.11314 0 1.82171 0.138381 0.595048 0.528925C0.270476 0.594272 0 0.841053 0 1.29771C0 1.7536 0.333714 2.15645 0.785524 2.08956C0.979048 2.08956 1.1101 2.01807 1.2381 2.01807C2.27048 1.75668 3.43467 1.63367 4.59505 1.63367C6.85105 1.63367 9.16648 2.14107 10.7139 3.05132C10.9074 3.11743 10.973 3.19508 11.1665 3.19508C11.619 3.19508 11.9345 2.85912 12 2.40246C12 2.01192 11.8065 1.76283 11.5474 1.63367C9.61295 0.528157 7.04457 0 4.59505 0ZM4.38095 2.85912C3.02705 2.85912 2.06248 3.05439 1.09486 3.31578C0.774095 3.44417 0.595048 3.64636 0.595048 4.03613C0.595048 4.36056 0.851048 4.68499 1.2381 4.68499C1.36914 4.68499 1.42552 4.67884 1.61905 4.61272C2.32762 4.41745 3.30057 4.3006 4.33371 4.3006C6.46095 4.3006 8.31238 4.82337 9.66705 5.66981C9.79429 5.73592 9.9261 5.78974 10.1189 5.78974C10.5059 5.78974 10.7619 5.45916 10.7619 5.06938C10.7619 4.808 10.64 4.54968 10.381 4.42053C8.70476 3.37882 6.57448 2.85912 4.38095 2.85912ZM4.59505 5.66981C3.50019 5.66981 2.46171 5.79281 1.42857 6.0542C1.16952 6.12031 0.976 6.30636 0.976 6.63079C0.976 6.89218 1.17867 7.15972 1.50019 7.15972C1.56571 7.15972 1.75314 7.08745 1.88114 7.08745C2.74775 6.88353 3.63434 6.77857 4.52419 6.77455C6.1341 6.77455 7.60686 7.1651 8.83352 7.88007C8.96457 7.94618 9.1101 8 9.2381 8C9.49714 8 9.744 7.80473 9.80952 7.54411C9.80952 7.21661 9.66933 7.09591 9.47581 6.96752C8.05638 6.12031 6.39848 5.66981 4.59505 5.66981Z" fill="white"/>
</svg>
