<svg width="24" height="24" viewBox="0 0 24 24" fill="none" xmlns="http://www.w3.org/2000/svg">
<path d="M12.02 11.02C14.25 11.02 16.1407 10.6794 17.692 9.99802C19.244 9.31735 20.02 8.49135 20.02 7.52002C20.02 6.54869 19.244 5.72202 17.692 5.04002C16.1407 4.36002 14.2497 4.02002 12.019 4.02002C9.78833 4.02002 7.89433 4.36002 6.337 5.04002C4.779 5.72135 4 6.54802 4 7.52002C4 8.49202 4.779 9.31802 6.337 9.99802C7.89433 10.6787 9.78833 11.019 12.019 11.019M12 12.558C12.8113 12.558 13.6367 12.4934 14.476 12.364C15.3153 12.2354 16.104 12.0447 16.842 11.792C17.5807 11.5394 18.2307 11.226 18.792 10.852C19.354 10.4787 19.763 10.0474 20.019 9.55802V12.519C19.763 13.009 19.354 13.4407 18.792 13.814C18.2307 14.188 17.5807 14.5014 16.842 14.754C16.104 15.0067 15.3153 15.1974 14.476 15.326C13.6367 15.4547 12.8113 15.519 12 15.519C11.1887 15.519 10.3633 15.4547 9.524 15.326C8.68467 15.1974 7.899 15.0067 7.167 14.754C6.435 14.5014 5.78833 14.188 5.227 13.814C4.66567 13.4407 4.25667 13.009 4 12.519V9.55802C4.25667 10.0474 4.66567 10.479 5.227 10.853C5.78833 11.2264 6.435 11.5397 7.167 11.793C7.899 12.045 8.68467 12.2354 9.524 12.364C10.3633 12.4934 11.1887 12.558 12 12.558ZM12 17.058C12.8113 17.058 13.6367 16.9934 14.476 16.864C15.3153 16.7354 16.104 16.5447 16.842 16.292C17.5807 16.0394 18.2307 15.726 18.792 15.352C19.354 14.9787 19.763 14.5474 20.019 14.058V17C19.763 17.49 19.354 17.9217 18.792 18.295C18.2307 18.6684 17.5807 18.9817 16.842 19.235C16.104 19.487 15.3153 19.6777 14.476 19.807C13.6367 19.9357 12.8113 20 12 20C11.1887 20 10.3633 19.9357 9.524 19.807C8.68467 19.6777 7.899 19.487 7.167 19.235C6.435 18.9817 5.78833 18.6684 5.227 18.295C4.66567 17.9217 4.25667 17.49 4 17V14.058C4.25667 14.5474 4.66567 14.979 5.227 15.353C5.78833 15.7264 6.435 16.0397 7.167 16.293C7.899 16.545 8.68467 16.7354 9.524 16.864C10.3633 16.9934 11.1887 17.058 12 17.058Z" fill="white"/>
</svg>
