<svg width="145" height="149" viewBox="0 0 145 149" fill="none" xmlns="http://www.w3.org/2000/svg">
<g filter="url(#filter0_d_264_3148)">
<path fill-rule="evenodd" clip-rule="evenodd" d="M134.808 79.0619C137.386 76.19 140 73.2789 140 70C140 66.7219 137.386 63.8109 134.808 60.9389C132.735 58.6289 130.684 56.3442 130.033 53.9141C129.348 51.352 129.997 48.2367 130.642 45.136C131.419 41.4045 132.191 37.6941 130.629 34.9946C129.036 32.2395 125.381 31.0432 121.737 29.8502C118.75 28.8721 115.769 27.8962 113.936 26.0652C112.101 24.2329 111.125 21.2493 110.146 18.259C108.954 14.6163 107.758 10.9638 105.005 9.37037C102.305 7.80847 98.5951 8.58077 94.8635 9.35747C91.7629 10.0029 88.6476 10.6513 86.0855 9.96614C83.6548 9.31637 81.3688 7.2646 79.0578 5.19031C76.1858 2.61256 73.275 0 69.9995 0C66.7248 0 63.8157 2.6114 60.9447 5.1886C58.6333 7.26348 56.3466 9.31619 53.9136 9.96614C51.3515 10.6513 48.2362 10.0029 45.1355 9.35747C41.404 8.58077 37.6936 7.80847 34.9941 9.37037C32.2387 10.9642 31.0417 14.6189 29.8482 18.2634C28.8698 21.2507 27.8938 24.2311 26.0635 26.064C24.2317 27.8985 21.2481 28.8749 18.2578 29.8536C14.6152 31.0457 10.9626 32.2411 9.36988 34.9946C7.80798 37.6941 8.58028 41.4045 9.35698 45.136C10.0024 48.2367 10.6508 51.352 9.96566 53.9141C9.31591 56.3447 7.26431 58.6303 5.19011 60.9411C2.61227 63.813 -0.000488281 66.7237 -0.000488281 70C-0.000488281 73.2756 2.61112 76.1847 5.18841 79.0556C7.26319 81.3668 9.31573 83.6531 9.96565 86.086C10.6508 88.6481 10.0024 91.7634 9.35698 94.864C8.58028 98.5956 7.80798 102.306 9.36988 105.005C10.9637 107.761 14.6184 108.958 18.2629 110.151C21.2502 111.13 24.2306 112.106 26.0635 113.936C27.898 115.768 28.8744 118.751 29.8531 121.742C31.0452 125.384 32.2406 129.037 34.9941 130.63C37.6939 132.192 41.4048 131.419 45.1367 130.643C48.237 129.998 51.3518 129.349 53.9136 130.034C56.3439 130.684 58.6293 132.735 60.9399 134.809C63.812 137.387 66.723 140 69.9995 140C73.2754 140 76.1847 137.388 79.0558 134.811C81.3667 132.737 83.6529 130.684 86.0855 130.034C88.6473 129.349 91.7621 129.998 94.8623 130.643C98.5943 131.419 102.305 132.192 105.005 130.63C107.76 129.036 108.957 125.381 110.151 121.737C111.129 118.749 112.105 115.769 113.936 113.936C115.767 112.102 118.751 111.125 121.741 110.146C125.384 108.954 129.036 107.759 130.629 105.005C132.191 102.306 131.419 98.5956 130.642 94.864C129.997 91.7634 129.348 88.6481 130.033 86.086C130.684 83.656 132.734 81.3716 134.808 79.0619ZM115.5 70C115.5 95.129 95.1285 115.5 69.9995 115.5C44.8706 115.5 24.4995 95.129 24.4995 70C24.4995 44.871 44.8706 24.5 69.9995 24.5C95.1285 24.5 115.5 44.871 115.5 70ZM116 70C116 95.4051 95.4046 116 69.9995 116C44.5944 116 23.9995 95.4051 23.9995 70C23.9995 44.5949 44.5944 24 69.9995 24C95.4046 24 116 44.5949 116 70Z" fill="#6CF6A3"/>
</g>
<defs>
<filter id="filter0_d_264_3148" x="-0.000488281" y="0" width="144.395" height="148.989" filterUnits="userSpaceOnUse" color-interpolation-filters="sRGB">
<feFlood flood-opacity="0" result="BackgroundImageFix"/>
<feColorMatrix in="SourceAlpha" type="matrix" values="0 0 0 0 0 0 0 0 0 0 0 0 0 0 0 0 0 0 127 0" result="hardAlpha"/>
<feOffset dx="4.39456" dy="8.98886"/>
<feComposite in2="hardAlpha" operator="out"/>
<feColorMatrix type="matrix" values="0 0 0 0 0.684167 0 0 0 0 0.684167 0 0 0 0 0.684167 0 0 0 0.16 0"/>
<feBlend mode="normal" in2="BackgroundImageFix" result="effect1_dropShadow_264_3148"/>
<feBlend mode="normal" in="SourceGraphic" in2="effect1_dropShadow_264_3148" result="shape"/>
</filter>
</defs>
</svg>
