<svg width="137" height="142" viewBox="0 0 137 142" fill="none" xmlns="http://www.w3.org/2000/svg">
<g filter="url(#filter0_d_261_3066)">
<path d="M1.98423 49.1973C17.0928 49.7344 37.5756 43.2649 56.4691 26.7247C65.7954 18.6061 72.6159 9.78111 76.6896 0.552793L83.806 2.0563C84.3356 22.1692 93.2392 43.6973 108.15 59.4145C115.672 67.3757 123.489 73.0985 132.112 76.6901L130.608 83.8065C112.886 83.0713 91.1173 92.278 74.615 107.553C66.4843 115.04 60.3153 123.294 56.3132 132.184L49.1969 130.68C49.2734 111.049 37.1171 85.6481 22.295 71.1885C14.7993 63.9408 7.51591 59.0391 0.480715 56.3137L1.98423 49.1973Z" fill="#F5943A"/>
</g>
<defs>
<filter id="filter0_d_261_3066" x="0.480713" y="0.552734" width="136.021" height="140.621" filterUnits="userSpaceOnUse" color-interpolation-filters="sRGB">
<feFlood flood-opacity="0" result="BackgroundImageFix"/>
<feColorMatrix in="SourceAlpha" type="matrix" values="0 0 0 0 0 0 0 0 0 0 0 0 0 0 0 0 0 0 127 0" result="hardAlpha"/>
<feOffset dx="4.39" dy="8.99"/>
<feComposite in2="hardAlpha" operator="out"/>
<feColorMatrix type="matrix" values="0 0 0 0 0.682353 0 0 0 0 0.682353 0 0 0 0 0.682353 0 0 0 0.16 0"/>
<feBlend mode="normal" in2="BackgroundImageFix" result="effect1_dropShadow_261_3066"/>
<feBlend mode="normal" in="SourceGraphic" in2="effect1_dropShadow_261_3066" result="shape"/>
</filter>
</defs>
</svg>
