<svg width="101" height="142" viewBox="0 0 101 142" fill="none" xmlns="http://www.w3.org/2000/svg">
<g filter="url(#filter0_d_264_3088)">
<path d="M89.9857 25.8632C89.5583 25.6659 89.0853 25.5891 88.6176 25.6409C88.1499 25.6927 87.7054 25.8711 87.3318 26.157L56.8017 49.804L45.144 2.44226C45.0469 2.03048 44.8472 1.64991 44.5635 1.33604C44.2797 1.02217 43.9212 0.785208 43.5213 0.647192C43.125 0.5001 42.6982 0.45483 42.28 0.515455C41.8618 0.576079 41.4655 0.740678 41.1275 0.994216L1.16427 30.5653C0.666102 30.9256 0.315284 31.4542 0.176649 32.0533C0.0380135 32.6524 0.120881 33.2816 0.410044 33.8246L36.9587 103.482C37.1316 103.792 37.3678 104.062 37.6521 104.275C37.9364 104.488 38.2623 104.638 38.6086 104.717C38.9738 104.804 39.3538 104.81 39.7214 104.733C40.0889 104.656 40.4349 104.499 40.7345 104.273L69.0577 83.3153L90.7368 131.119C90.8904 131.473 91.1222 131.787 91.4147 132.037C91.7071 132.288 92.0525 132.469 92.425 132.567C92.7975 132.665 93.1874 132.677 93.5652 132.602C93.9429 132.528 94.2987 132.368 94.6059 132.136C94.9444 131.888 95.2166 131.559 95.3986 131.181C95.5805 130.802 95.6666 130.384 95.6493 129.965L91.3851 28.0199C91.3641 27.5686 91.2234 27.131 90.9774 26.752C90.7315 26.373 90.3892 26.0663 89.9857 25.8632Z" fill="#83C4FF"/>
</g>
<defs>
<filter id="filter0_d_264_3088" x="0.111328" y="0.489258" width="99.9346" height="141.15" filterUnits="userSpaceOnUse" color-interpolation-filters="sRGB">
<feFlood flood-opacity="0" result="BackgroundImageFix"/>
<feColorMatrix in="SourceAlpha" type="matrix" values="0 0 0 0 0 0 0 0 0 0 0 0 0 0 0 0 0 0 127 0" result="hardAlpha"/>
<feOffset dx="4.39456" dy="8.98886"/>
<feComposite in2="hardAlpha" operator="out"/>
<feColorMatrix type="matrix" values="0 0 0 0 0.684167 0 0 0 0 0.684167 0 0 0 0 0.684167 0 0 0 0.16 0"/>
<feBlend mode="normal" in2="BackgroundImageFix" result="effect1_dropShadow_264_3088"/>
<feBlend mode="normal" in="SourceGraphic" in2="effect1_dropShadow_264_3088" result="shape"/>
</filter>
</defs>
</svg>
