<svg width="510" height="517" viewBox="0 0 510 517" fill="none" xmlns="http://www.w3.org/2000/svg">
<path d="M461.712 281.553C462.004 279.398 462.705 277.576 463.814 276.088C464.952 274.603 466.398 273.439 468.151 272.594L469.881 275.374C468.406 276.111 467.216 277.003 466.313 278.051C465.439 279.103 464.897 280.405 464.686 281.957C464.132 286.037 465.767 288.337 469.589 288.855C471.14 289.066 472.369 288.852 473.275 288.214C474.181 287.576 474.989 286.369 475.698 284.592L476.563 282.427C477.582 279.872 478.81 278.049 480.246 276.956C481.707 275.896 483.601 275.524 485.929 275.839C488.601 276.202 490.5 277.308 491.624 279.158C492.777 281.012 493.167 283.318 492.793 286.077C492.508 288.175 491.882 289.875 490.915 291.178C489.945 292.51 488.554 293.594 486.743 294.431L485.277 291.642C486.59 291.03 487.616 290.262 488.356 289.338C489.12 288.447 489.614 287.182 489.836 285.544C490.086 283.705 489.874 282.242 489.202 281.156C488.526 280.099 487.283 279.447 485.473 279.202C484.007 279.003 482.848 279.241 481.996 279.915C481.139 280.618 480.377 281.817 479.708 283.512L478.843 285.677C478.308 287.039 477.729 288.175 477.108 289.085C476.516 290 475.834 290.712 475.062 291.222C474.287 291.761 473.407 292.095 472.424 292.225C471.465 292.388 470.368 292.385 469.132 292.218C466.288 291.832 464.233 290.69 462.969 288.791C461.729 286.926 461.31 284.513 461.712 281.553Z" fill="white"/>
<path d="M456.536 307.903C456.97 306.248 457.656 304.839 458.591 303.676C459.555 302.52 460.775 301.641 462.253 301.04C463.723 300.467 465.478 300.179 467.517 300.175C469.578 300.207 471.913 300.566 474.521 301.252C477.129 301.937 479.324 302.769 481.106 303.747C482.909 304.761 484.309 305.879 485.307 307.1C486.298 308.35 486.915 309.712 487.157 311.185C487.428 312.665 487.346 314.233 486.911 315.888C486.277 318.3 485.249 320.099 483.828 321.284C482.435 322.477 480.576 323.218 478.251 323.507L477.318 320.383C479.057 320.27 480.466 319.816 481.545 319.02C482.644 318.259 483.437 316.954 483.924 315.103C484.513 312.859 484.157 310.906 482.855 309.244C481.573 307.618 479.572 306.447 476.851 305.732L470.288 304.007C467.568 303.292 465.236 303.324 463.292 304.102C461.369 304.916 460.112 306.445 459.523 308.688C459.021 310.596 459.069 312.182 459.666 313.449C460.29 314.722 461.374 315.847 462.917 316.822L460.526 319.072C458.644 317.678 457.344 316.062 456.628 314.224C455.932 312.422 455.901 310.315 456.536 307.903Z" fill="white"/>
<path d="M451.11 327.099L452.417 323.874L480.555 335.283L476.355 345.643C474.47 350.292 470.853 351.533 465.505 349.365C460.99 347.534 459.059 344.811 459.711 341.195L445.111 341.894L446.582 338.266L460.817 337.888L463.203 332.003L451.11 327.099ZM463.084 340.169C462.115 342.561 462.92 344.28 465.5 345.326L468.241 346.437C470.821 347.483 472.596 346.81 473.566 344.418L476.426 337.364L465.945 333.114L463.084 340.169Z" fill="white"/>
<path d="M436.396 357.278C438.211 354.073 440.716 352.209 443.911 351.685C447.107 351.162 451.064 352.236 455.784 354.908C460.503 357.58 463.46 360.42 464.655 363.43C465.851 366.439 465.541 369.547 463.727 372.752C461.912 375.957 459.407 377.821 456.211 378.344C453.016 378.868 449.058 377.794 444.339 375.122C439.62 372.45 436.663 369.61 435.467 366.6C434.272 363.59 434.581 360.483 436.396 357.278ZM439.084 358.8C437.841 360.995 437.603 363.093 438.37 365.094C439.162 367.109 440.782 368.809 443.23 370.195L449.135 373.538C451.583 374.924 453.862 375.431 455.972 375.06C458.107 374.702 459.796 373.426 461.039 371.23C462.282 369.035 462.508 366.929 461.715 364.915C460.948 362.914 459.341 361.221 456.893 359.835L450.988 356.492C448.54 355.106 446.248 354.592 444.113 354.949C442.003 355.321 440.327 356.604 439.084 358.8Z" fill="white"/>
<path d="M427.465 372.754L451.954 390.705L449.896 393.512L427.864 377.361L421.049 386.658L418.593 384.858L427.465 372.754Z" fill="white"/>
<path d="M414.594 389.645L437.128 409.996L434.796 412.578L414.522 394.269L406.796 402.824L404.536 400.783L414.594 389.645Z" fill="white"/>
<path d="M281.735 46.9962C279.581 46.6955 277.761 45.9878 276.277 44.8729C274.797 43.7293 273.638 42.2792 272.8 40.5225L275.587 38.8033C276.318 40.2815 277.206 41.4741 278.25 42.3812C279.299 43.2596 280.599 43.807 282.15 44.0235C286.228 44.5928 288.534 42.9674 289.067 39.1474C289.284 37.5965 289.075 36.3668 288.44 35.4583C287.805 34.5499 286.601 33.7376 284.827 33.0215L282.665 32.1488C280.115 31.1194 278.296 29.8846 277.209 28.4445C276.154 26.9796 275.789 25.084 276.114 22.7575C276.487 20.0864 277.6 18.1921 279.454 17.0747C281.313 15.9286 283.62 15.548 286.378 15.9328C288.474 16.2254 290.172 16.8577 291.471 17.8296C292.799 18.8056 293.878 20.2006 294.709 22.0148L291.914 23.4695C291.307 22.1549 290.543 21.1259 289.622 20.3825C288.733 19.6143 287.471 19.116 285.834 18.8875C283.995 18.6309 282.532 18.8366 281.443 19.5045C280.383 20.1764 279.727 21.4171 279.474 23.2265C279.27 24.6913 279.503 25.8512 280.174 26.7062C280.874 27.5652 282.07 28.3324 283.762 29.0078L285.924 29.8805C287.284 30.4216 288.417 31.0045 289.326 31.629C290.238 32.2249 290.948 32.9095 291.455 33.683C291.99 34.4605 292.321 35.3412 292.448 36.3251C292.607 37.2843 292.6 38.3814 292.427 39.6165C292.031 42.4599 290.881 44.5101 288.978 45.7671C287.107 46.9994 284.693 47.4091 281.735 46.9962Z" fill="white"/>
<path d="M309.466 52.5638C307.815 52.1162 306.411 51.4203 305.255 50.476C304.106 49.5037 303.237 48.2766 302.647 46.7947C302.085 45.3204 301.81 43.5633 301.822 41.5234C301.869 39.4631 302.246 37.1314 302.951 34.5283C303.657 31.9252 304.505 29.7365 305.497 27.9621C306.524 26.1673 307.652 24.7754 308.882 23.7866C310.139 22.8053 311.505 22.199 312.98 21.9677C314.463 21.7085 316.03 21.8026 317.681 22.2501C320.088 22.9024 321.879 23.9436 323.054 25.3737C324.237 26.7758 324.963 28.6403 325.234 30.9671L322.103 31.8764C322.004 30.1368 321.56 28.7246 320.772 27.6398C320.02 26.5346 318.721 25.7317 316.873 25.2311C314.634 24.6243 312.679 24.9657 311.007 26.2554C309.371 27.5247 308.185 29.5169 307.45 32.232L305.675 38.7817C304.939 41.4968 304.953 43.8291 305.716 45.7787C306.516 47.7079 308.035 48.976 310.274 49.5828C312.177 50.0986 313.765 50.0629 315.035 49.4759C316.314 48.8608 317.446 47.7857 318.433 46.2504L320.665 48.658C319.257 50.5297 317.631 51.8168 315.788 52.5192C313.981 53.2012 311.873 53.2161 309.466 52.5638Z" fill="white"/>
<path d="M327.271 57.6008L324.051 56.2812L335.565 28.1859L345.909 32.4252C350.552 34.3276 351.779 37.9489 349.59 43.2888C347.743 47.797 345.012 49.7181 341.399 49.0521L342.043 63.6546L338.421 62.17L338.096 47.9338L332.22 45.5255L327.271 57.6008ZM340.385 45.6751C342.774 46.6538 344.496 45.8551 345.551 43.279L346.673 40.542C347.729 37.9659 347.062 36.1885 344.674 35.2098L337.63 32.3231L333.341 42.7884L340.385 45.6751Z" fill="white"/>
<path d="M358.169 72.7659C354.978 70.9278 353.132 68.409 352.632 65.2096C352.132 62.0101 353.235 58.0607 355.942 53.3614C358.648 48.6621 361.511 45.7258 364.529 44.5526C367.547 43.3794 370.652 43.7119 373.844 45.55C377.035 47.3881 378.881 49.9069 379.381 53.1063C379.881 56.3058 378.778 60.2552 376.071 64.9545C373.364 69.6538 370.502 72.5901 367.484 73.7633C364.466 74.9365 361.361 74.604 358.169 72.7659ZM359.71 70.0896C361.897 71.3487 363.993 71.6022 365.999 70.8501C368.02 70.0728 369.732 68.4653 371.136 66.0277L374.523 60.1472C375.926 57.7096 376.45 55.4345 376.094 53.3218C375.753 51.184 374.489 49.4855 372.302 48.2263C370.116 46.9672 368.012 46.7262 365.992 47.5035C363.986 48.2557 362.281 49.8506 360.877 52.2882L357.49 58.1687C356.086 60.6063 355.555 62.894 355.897 65.0318C356.253 67.1445 357.524 68.8304 359.71 70.0896Z" fill="white"/>
<path d="M373.654 81.7791L391.783 57.4223L394.575 59.5001L378.264 81.4142L387.511 88.297L385.693 90.7396L373.654 81.7791Z" fill="white"/>
<path d="M389.907 94.237L410.339 71.7772L412.913 74.119L394.53 94.3264L403.057 102.084L401.008 104.336L389.907 94.237Z" fill="white"/>
<path d="M87.4641 378.442C88.751 380.195 89.5125 381.993 89.7487 383.834C89.9614 385.692 89.7306 387.534 89.0563 389.36L85.8802 388.562C86.4299 387.007 86.6655 385.539 86.587 384.158C86.4852 382.794 85.9709 381.48 85.0444 380.218C82.6078 376.898 79.8348 376.379 76.7254 378.661C75.463 379.588 74.7275 380.595 74.519 381.684C74.3105 382.772 74.5683 384.201 75.2924 385.972L76.1749 388.13C77.2158 390.676 77.5994 392.841 77.3257 394.624C77.0115 396.402 75.9075 397.985 74.0138 399.375C71.8396 400.971 69.7054 401.494 67.6114 400.944C65.494 400.412 63.6117 399.024 61.9645 396.779C60.7119 395.073 59.9808 393.415 59.7713 391.806C59.5446 390.174 59.7918 388.428 60.5129 386.567L63.5043 387.555C62.9857 388.907 62.7811 390.173 62.8907 391.351C62.9598 392.524 63.4834 393.776 64.4614 395.109C65.5596 396.605 66.7276 397.51 67.9657 397.825C69.1865 398.116 70.5334 397.721 72.0062 396.64C73.1986 395.765 73.867 394.788 74.0116 393.711C74.139 392.61 73.8547 391.218 73.1587 389.535L72.2762 387.377C71.716 386.025 71.3429 384.806 71.1569 383.719C70.9476 382.65 70.9433 381.664 71.1441 380.761C71.3277 379.835 71.728 378.984 72.3451 378.207C72.9217 377.424 73.7126 376.664 74.7179 375.926C77.0324 374.227 79.3037 373.621 81.5318 374.109C83.7193 374.589 85.6967 376.034 87.4641 378.442Z" fill="white"/>
<path d="M73.9419 357.535C74.7893 359.022 75.286 360.508 75.432 361.994C75.5529 363.494 75.296 364.975 74.6615 366.439C74.0126 367.877 72.9609 369.311 71.5063 370.741C70.0121 372.16 68.0935 373.538 65.7505 374.874C63.4076 376.21 61.2574 377.152 59.3001 377.7C57.3032 378.238 55.5207 378.419 53.9526 378.245C52.3701 378.046 50.9768 377.505 49.7727 376.622C48.5434 375.754 47.505 374.577 46.6576 373.091C45.4224 370.924 44.8974 368.92 45.0826 367.078C45.2427 365.251 46.0521 363.421 47.5107 361.588L50.3633 363.167C49.2002 364.464 48.5119 365.774 48.2984 367.098C48.0453 368.41 48.3927 369.898 49.3407 371.561C50.4897 373.576 52.1108 374.722 54.204 374.997C56.2577 375.262 58.5063 374.698 60.9501 373.304L66.8453 369.943C69.2891 368.55 70.9327 366.895 71.7763 364.979C72.5804 363.052 72.4079 361.08 71.2588 359.065C70.2821 357.352 69.1376 356.252 67.8251 355.765C66.4875 355.292 64.9264 355.248 63.142 355.631L63.2747 352.351C65.5951 352.029 67.6541 352.274 69.4518 353.085C71.21 353.885 72.7067 355.369 73.9419 357.535Z" fill="white"/>
<path d="M64.5982 340.397L65.9365 343.61L37.9085 355.286L33.6092 344.967C31.6798 340.335 33.3787 336.91 38.7059 334.691C43.2033 332.817 46.4914 333.395 48.5703 336.425L58.4587 325.66L59.9643 329.274L50.1094 339.553L52.5518 345.416L64.5982 340.397ZM46.8937 339.526C45.9012 337.144 44.1199 336.488 41.55 337.559L38.8195 338.696C36.2496 339.767 35.4609 341.493 36.4535 343.876L39.381 350.903L49.8213 346.553L46.8937 339.526Z" fill="white"/>
<path d="M54.1744 309.696C55.1487 313.247 54.6879 316.336 52.7918 318.961C50.8957 321.586 47.3328 323.616 42.103 325.051C36.8732 326.485 32.7733 326.558 29.8031 325.267C26.833 323.977 24.8607 321.556 23.8864 318.004C22.912 314.453 23.3729 311.364 25.269 308.739C27.165 306.114 30.728 304.084 35.9577 302.649C41.1875 301.215 45.2875 301.142 48.2576 302.433C51.2278 303.723 53.2 306.144 54.1744 309.696ZM51.1959 310.513C50.5285 308.08 49.2174 306.424 47.2627 305.547C45.28 304.678 42.9323 304.615 40.2195 305.359L33.6753 307.155C30.9625 307.899 28.9894 309.147 27.7559 310.899C26.4944 312.658 26.1974 314.754 26.8648 317.187C27.5323 319.62 28.8574 321.272 30.84 322.141C32.7947 323.018 35.1284 323.085 37.8412 322.341L44.3854 320.545C47.0982 319.801 49.0853 318.549 50.3468 316.79C51.5804 315.038 51.8634 312.946 51.1959 310.513Z" fill="white"/>
<path d="M49.6406 292.838L19.6338 297.476L19.1023 294.036L46.0998 289.864L44.3393 278.472L47.3485 278.007L49.6406 292.838Z" fill="white"/>
<path d="M46.874 272.583L16.5574 274.261L16.3651 270.787L43.6414 269.277L43.0043 257.767L46.0447 257.599L46.874 272.583Z" fill="white"/>
<path d="M123.423 91.4509C121.723 92.8077 119.958 93.6414 118.128 93.9519C116.28 94.2397 114.43 94.0837 112.578 93.4838L113.247 90.278C114.823 90.7643 116.299 90.9403 117.676 90.806C119.035 90.6489 120.327 90.082 121.551 89.105C124.769 86.5361 125.175 83.7444 122.769 80.7299C121.792 79.506 120.756 78.8119 119.66 78.6477C118.564 78.4834 117.146 78.7989 115.406 79.5941L113.285 80.5632C110.784 81.7063 108.637 82.1772 106.844 81.976C105.055 81.734 103.428 80.695 101.962 78.8591C100.28 76.7513 99.6708 74.6401 100.135 72.5255C100.581 70.3883 101.892 68.4513 104.068 66.7146C105.723 65.3939 107.35 64.5963 108.949 64.3218C110.57 64.0292 112.325 64.2055 114.213 64.8507L113.347 67.8797C111.975 67.4162 110.703 67.2631 109.529 67.4203C108.361 67.5368 107.131 68.1106 105.839 69.1418C104.388 70.2997 103.531 71.5034 103.267 72.7532C103.025 73.9848 103.474 75.3146 104.614 76.7425C105.537 77.8984 106.539 78.5268 107.622 78.6276C108.727 78.7103 110.106 78.3699 111.76 77.6063L113.881 76.6372C115.208 76.0227 116.411 75.6006 117.49 75.3708C118.55 75.1183 119.535 75.0741 120.445 75.2382C121.378 75.3841 122.245 75.7497 123.046 76.3348C123.851 76.8792 124.643 77.6386 125.421 78.6132C127.212 80.8571 127.909 83.102 127.513 85.348C127.121 87.5532 125.757 89.5875 123.423 91.4509Z" fill="white"/>
<path d="M144.366 76.6393C142.914 77.5443 141.448 78.0988 139.97 78.3029C138.475 78.4824 136.985 78.2838 135.498 77.7071C134.035 77.115 132.561 76.1203 131.075 74.7228C129.598 73.2854 128.146 71.4223 126.72 69.1334C125.293 66.8446 124.268 64.733 123.643 62.7986C123.028 60.8244 122.776 59.0504 122.889 57.4766C123.026 55.8875 123.512 54.4741 124.347 53.2363C125.166 51.9739 126.302 50.8903 127.754 49.9853C129.87 48.6661 131.852 48.063 133.7 48.176C135.532 48.2644 137.392 49.0014 139.281 50.3871L137.815 53.2994C136.474 52.188 135.137 51.5515 133.806 51.39C132.485 51.1885 131.012 51.594 129.387 52.6064C127.419 53.8335 126.337 55.4982 126.144 57.6006C125.96 59.663 126.612 61.8879 128.1 64.2752L131.689 70.0342C133.177 72.4215 134.895 73.9991 136.843 74.767C138.8 75.4949 140.763 75.2453 142.732 74.0182C144.406 72.9751 145.46 71.7884 145.895 70.4579C146.315 69.1028 146.299 67.5412 145.846 65.773L149.129 65.7772C149.541 68.0832 149.377 70.1503 148.637 71.9784C147.906 73.7665 146.483 75.3201 144.366 76.6393Z" fill="white"/>
<path d="M160.133 67.0982L156.98 68.5708L144.132 41.0603L154.261 36.3296C158.807 34.2066 162.3 35.7595 164.742 40.9883C166.804 45.4026 166.365 48.7122 163.426 50.9171L174.598 60.3427L171.051 61.9994L160.365 52.5867L154.611 55.2742L160.133 67.0982ZM160.256 49.3728C162.595 48.2806 163.175 46.4733 161.997 43.9508L160.745 41.2707C159.567 38.7483 157.809 38.0331 155.471 39.1253L148.573 42.3466L153.359 52.5941L160.256 49.3728Z" fill="white"/>
<path d="M190.549 55.2937C187.04 56.4101 183.935 56.0738 181.236 54.2849C178.537 52.4959 176.365 49.0175 174.721 43.8496C173.077 38.6817 172.84 34.588 174.01 31.5684C175.18 28.5487 177.52 26.4807 181.029 25.3643C184.539 24.248 187.643 24.5842 190.343 26.3732C193.042 28.1622 195.214 31.6406 196.857 36.8085C198.501 41.9763 198.738 46.0701 197.568 49.0897C196.399 52.1093 194.059 54.1773 190.549 55.2937ZM189.613 52.3505C192.017 51.5858 193.618 50.2092 194.416 48.2208C195.205 46.2048 195.174 43.8565 194.321 41.1758L192.264 34.7091C191.411 32.0284 190.085 30.107 188.285 28.945C186.476 27.7552 184.37 27.5428 181.965 28.3075C179.561 29.0723 177.964 30.4627 177.175 32.4787C176.378 34.4671 176.405 36.8016 177.258 39.4823L179.315 45.949C180.167 48.6297 181.498 50.5649 183.307 51.7546C185.107 52.9166 187.209 53.1153 189.613 52.3505Z" fill="white"/>
<path d="M207.594 49.9537L201.793 20.1499L205.209 19.4851L210.428 46.3L221.743 44.0979L222.325 47.0868L207.594 49.9537Z" fill="white"/>
<path d="M228.079 46.339L225.232 16.1099L228.696 15.7835L231.258 42.9811L242.735 41.9L243.021 44.9315L228.079 46.339Z" fill="white"/>
<path d="M123.423 91.4504C121.723 92.8072 119.958 93.6409 118.128 93.9514C116.28 94.2392 114.43 94.0832 112.578 93.4833L113.247 90.2775C114.823 90.7638 116.299 90.9398 117.676 90.8055C119.035 90.6484 120.327 90.0815 121.551 89.1046C124.769 86.5356 125.175 83.7439 122.769 80.7294C121.792 79.5055 120.756 78.8114 119.66 78.6472C118.564 78.4829 117.146 78.7984 115.406 79.5936L113.285 80.5627C110.784 81.7058 108.637 82.1767 106.844 81.9755C105.055 81.7335 103.428 80.6945 101.962 78.8587C100.28 76.7508 99.6708 74.6396 100.135 72.525C100.581 70.3878 101.892 68.4508 104.068 66.7141C105.723 65.3934 107.35 64.5958 108.949 64.3213C110.57 64.0287 112.325 64.205 114.213 64.8502L113.347 67.8792C111.975 67.4157 110.703 67.2626 109.529 67.4198C108.361 67.5363 107.131 68.1101 105.839 69.1413C104.388 70.2992 103.531 71.503 103.267 72.7527C103.025 73.9843 103.474 75.3141 104.614 76.742C105.537 77.8979 106.539 78.5263 107.622 78.6271C108.727 78.7099 110.106 78.3694 111.76 77.6058L113.881 76.6367C115.208 76.0222 116.411 75.6001 117.49 75.3703C118.55 75.1178 119.535 75.0736 120.445 75.2377C121.378 75.3836 122.245 75.7492 123.046 76.3343C123.851 76.8787 124.643 77.6382 125.421 78.6128C127.212 80.8566 127.909 83.1015 127.513 85.3475C127.121 87.5527 125.757 89.587 123.423 91.4504Z" fill="white"/>
<path d="M144.366 76.6388C142.914 77.5438 141.448 78.0984 139.97 78.3024C138.475 78.4819 136.985 78.2833 135.498 77.7066C134.035 77.1146 132.561 76.1198 131.075 74.7223C129.598 73.2849 128.146 71.4218 126.72 69.1329C125.293 66.8441 124.268 64.7325 123.643 62.7982C123.028 60.8239 122.776 59.0499 122.889 57.4761C123.026 55.887 123.512 54.4736 124.347 53.2358C125.166 51.9735 126.302 50.8898 127.754 49.9848C129.87 48.6656 131.852 48.0625 133.7 48.1755C135.532 48.2639 137.392 49.0009 139.281 50.3866L137.815 53.2989C136.474 52.1875 135.137 51.5511 133.806 51.3895C132.485 51.1881 131.012 51.5935 129.387 52.6059C127.419 53.833 126.337 55.4977 126.144 57.6001C125.96 59.6625 126.612 61.8874 128.1 64.2747L131.689 70.0337C133.177 72.421 134.895 73.9986 136.843 74.7665C138.8 75.4944 140.763 75.2448 142.732 74.0177C144.406 72.9747 145.46 71.7879 145.895 70.4574C146.315 69.1023 146.299 67.5407 145.846 65.7726L149.129 65.7767C149.541 68.0827 149.377 70.1498 148.637 71.9779C147.906 73.766 146.483 75.3197 144.366 76.6388Z" fill="white"/>
<path d="M160.133 67.0977L156.98 68.5703L144.132 41.0598L154.261 36.3291C158.807 34.2061 162.3 35.759 164.742 40.9878C166.804 45.4021 166.365 48.7117 163.426 50.9166L174.598 60.3422L171.051 61.9989L160.365 52.5862L154.611 55.2737L160.133 67.0977ZM160.256 49.3723C162.595 48.2801 163.175 46.4728 161.997 43.9504L160.745 41.2702C159.567 38.7478 157.809 38.0326 155.471 39.1248L148.573 42.3461L153.359 52.5936L160.256 49.3723Z" fill="white"/>
<path d="M190.549 55.2932C187.04 56.4096 183.935 56.0733 181.236 54.2844C178.537 52.4954 176.365 49.017 174.721 43.8491C173.077 38.6813 172.84 34.5875 174.01 31.5679C175.18 28.5482 177.52 26.4802 181.029 25.3638C184.539 24.2475 187.643 24.5838 190.343 26.3727C193.042 28.1617 195.214 31.6401 196.857 36.808C198.501 41.9758 198.738 46.0696 197.568 49.0892C196.399 52.1089 194.059 54.1769 190.549 55.2932ZM189.613 52.3501C192.017 51.5853 193.618 50.2087 194.416 48.2203C195.205 46.2043 195.174 43.856 194.321 41.1753L192.264 34.7086C191.411 32.0279 190.085 30.1066 188.285 28.9445C186.476 27.7548 184.37 27.5423 181.965 28.307C179.561 29.0718 177.964 30.4622 177.175 32.4782C176.378 34.4666 176.405 36.8011 177.258 39.4818L179.315 45.9485C180.167 48.6292 181.498 50.5644 183.307 51.7541C185.107 52.9162 187.209 53.1148 189.613 52.3501Z" fill="white"/>
<path d="M207.594 49.9532L201.794 20.1494L205.209 19.4846L210.428 46.2995L221.743 44.0974L222.325 47.0863L207.594 49.9532Z" fill="white"/>
<path d="M228.079 46.3385L225.232 16.1094L228.696 15.783L231.258 42.9806L242.735 41.8995L243.021 44.9311L228.079 46.3385Z" fill="white"/>
<path d="M226.599 460.816C228.752 461.124 230.569 461.838 232.05 462.958C233.526 464.106 234.68 465.56 235.513 467.319L232.72 469.029C231.994 467.549 231.11 466.353 230.068 465.443C229.023 464.561 227.725 464.009 226.175 463.788C222.098 463.205 219.787 464.823 219.241 468.641C219.019 470.191 219.224 471.422 219.856 472.332C220.488 473.243 221.689 474.059 223.461 474.781L225.62 475.661C228.167 476.698 229.982 477.939 231.064 479.383C232.114 480.851 232.473 482.748 232.14 485.073C231.759 487.743 230.639 489.634 228.781 490.745C226.919 491.885 224.61 492.258 221.854 491.864C219.758 491.565 218.062 490.927 216.767 489.951C215.442 488.97 214.368 487.572 213.543 485.755L216.342 484.31C216.945 485.626 217.706 486.658 218.625 487.404C219.51 488.175 220.771 488.678 222.408 488.911C224.245 489.174 225.709 488.973 226.8 488.309C227.863 487.64 228.523 486.402 228.781 484.593C228.991 483.129 228.761 481.969 228.093 481.111C227.396 480.25 226.202 479.479 224.512 478.798L222.353 477.918C220.996 477.373 219.864 476.786 218.958 476.159C218.047 475.56 217.34 474.873 216.835 474.098C216.302 473.318 215.974 472.436 215.851 471.452C215.695 470.492 215.706 469.395 215.882 468.161C216.288 465.319 217.445 463.272 219.352 462.022C221.227 460.796 223.642 460.394 226.599 460.816Z" fill="white"/>
<path d="M201.397 455.618C203.052 456.054 204.46 456.741 205.623 457.677C206.778 458.641 207.656 459.862 208.257 461.34C208.829 462.81 209.116 464.566 209.118 466.605C209.085 468.666 208.724 471 208.037 473.608C207.35 476.216 206.516 478.411 205.537 480.192C204.522 481.994 203.404 483.393 202.181 484.391C200.931 485.381 199.569 485.997 198.096 486.238C196.615 486.508 195.047 486.424 193.393 485.988C190.981 485.353 189.183 484.324 187.998 482.902C186.806 481.508 186.067 479.649 185.78 477.324L188.904 476.393C189.016 478.132 189.469 479.541 190.264 480.62C191.024 481.72 192.329 482.514 194.18 483.002C196.423 483.593 198.376 483.238 200.039 481.937C201.666 480.656 202.838 478.656 203.555 475.936L205.284 469.374C206.001 466.654 205.971 464.322 205.194 462.377C204.381 460.454 202.853 459.196 200.61 458.605C198.703 458.102 197.116 458.149 195.85 458.745C194.576 459.369 193.45 460.452 192.474 461.994L190.226 459.602C191.621 457.72 193.238 456.422 195.076 455.707C196.878 455.012 198.986 454.983 201.397 455.618Z" fill="white"/>
<path d="M183.243 450.451L186.473 451.744L175.188 479.932L164.809 475.777C160.152 473.912 158.895 470.301 161.04 464.943C162.851 460.42 165.566 458.477 169.185 459.114L168.422 444.517L172.056 445.972L172.496 460.205L178.392 462.566L183.243 450.451ZM170.226 462.482C167.829 461.523 166.114 462.336 165.079 464.92L163.98 467.666C162.945 470.251 163.626 472.023 166.022 472.982L173.089 475.812L177.293 465.312L170.226 462.482Z" fill="white"/>
<path d="M153.726 436.171C156.94 437.97 158.816 440.466 159.355 443.659C159.894 446.852 158.839 450.815 156.19 455.547C153.541 460.279 150.715 463.25 147.711 464.46C144.707 465.67 141.599 465.375 138.385 463.576C135.171 461.777 133.295 459.281 132.756 456.088C132.217 452.895 133.272 448.932 135.921 444.2C138.57 439.468 141.396 436.497 144.4 435.287C147.404 434.077 150.513 434.372 153.726 436.171ZM152.218 438.866C150.016 437.634 147.917 437.406 145.92 438.182C143.909 438.984 142.217 440.612 140.843 443.067L137.528 448.988C136.154 451.443 135.658 453.724 136.04 455.832C136.407 457.966 137.692 459.649 139.894 460.881C142.095 462.114 144.201 462.329 146.212 461.527C148.209 460.75 149.894 459.135 151.269 456.68L154.583 450.759C155.957 448.304 156.461 446.01 156.093 443.877C155.711 441.769 154.419 440.098 152.218 438.866Z" fill="white"/>
<path d="M138.28 427.339L120.47 451.929L117.651 449.888L133.676 427.763L124.34 421.002L126.126 418.535L138.28 427.339Z" fill="white"/>
<path d="M122.246 415.279L102.149 438.038L99.5401 435.735L117.622 415.258L108.981 407.628L110.997 405.345L122.246 415.279Z" fill="white"/>
<path d="M381.207 420.344C382.943 419.033 384.73 418.247 386.567 417.986C388.423 417.747 390.268 417.953 392.103 418.602L391.348 421.789C389.786 421.261 388.315 421.045 386.934 421.142C385.572 421.263 384.266 421.795 383.016 422.739C379.73 425.22 379.249 428 381.573 431.078C382.517 432.328 383.534 433.05 384.625 433.243C385.716 433.437 387.142 433.159 388.903 432.411L391.049 431.499C393.58 430.424 395.739 430.011 397.526 430.26C399.308 430.55 400.906 431.632 402.322 433.507C403.947 435.659 404.5 437.786 403.979 439.887C403.475 442.012 402.113 443.913 399.891 445.59C398.202 446.866 396.554 447.62 394.948 447.851C393.319 448.1 391.57 447.877 389.7 447.181L390.647 444.177C392.006 444.677 393.274 444.864 394.451 444.738C395.622 444.653 396.867 444.113 398.186 443.117C399.667 441.998 400.557 440.818 400.854 439.576C401.129 438.351 400.715 437.01 399.614 435.552C398.723 434.371 397.738 433.716 396.659 433.586C395.556 433.474 394.168 433.777 392.494 434.496L390.348 435.408C389.005 435.987 387.791 436.376 386.707 436.577C385.64 436.801 384.654 436.819 383.749 436.63C382.82 436.459 381.964 436.071 381.179 435.464C380.388 434.899 379.617 434.118 378.865 433.123C377.135 430.832 376.499 428.569 376.955 426.334C377.406 424.141 378.824 422.144 381.207 420.344Z" fill="white"/>
<path d="M360.356 434.165C361.833 433.301 363.314 432.788 364.798 432.625C366.296 432.488 367.781 432.729 369.251 433.347C370.696 433.98 372.142 435.016 373.588 436.454C375.024 437.933 376.422 439.836 377.784 442.164C379.146 444.492 380.111 446.632 380.681 448.583C381.241 450.574 381.442 452.354 381.285 453.924C381.103 455.509 380.578 456.908 379.709 458.122C378.854 459.361 377.688 460.412 376.211 461.276C374.059 462.535 372.06 463.082 370.217 462.917C368.388 462.777 366.549 461.988 364.7 460.55L366.247 457.68C367.557 458.828 368.875 459.502 370.201 459.701C371.516 459.94 373 459.576 374.652 458.61C376.655 457.438 377.782 455.805 378.035 453.709C378.277 451.652 377.688 449.41 376.268 446.982L372.842 441.124C371.422 438.696 369.749 437.07 367.823 436.248C365.887 435.465 363.918 435.659 361.915 436.831C360.213 437.826 359.126 438.983 358.653 440.301C358.196 441.643 358.168 443.205 358.571 444.985L355.289 444.888C354.942 442.572 355.164 440.51 355.956 438.704C356.737 436.937 358.203 435.424 360.356 434.165Z" fill="white"/>
<path d="M343.937 443.375L347.129 441.988L359.235 469.832L348.983 474.29C344.382 476.291 340.931 474.645 338.63 469.352C336.687 464.884 337.215 461.588 340.212 459.462L329.297 449.741L332.887 448.18L343.317 457.875L349.141 455.343L343.937 443.375ZM343.339 461.091C340.972 462.12 340.344 463.911 341.454 466.464L342.633 469.177C343.743 471.73 345.482 472.492 347.849 471.463L354.83 468.428L350.32 458.056L343.339 461.091Z" fill="white"/>
<path d="M312.955 454.272C316.497 453.261 319.59 453.69 322.235 455.559C324.879 457.428 326.946 460.97 328.434 466.185C329.922 471.399 330.037 475.498 328.777 478.482C327.517 481.465 325.117 483.462 321.575 484.473C318.034 485.484 314.941 485.055 312.296 483.186C309.652 481.317 307.585 477.775 306.097 472.56C304.608 467.345 304.494 463.246 305.754 460.263C307.013 457.28 309.414 455.283 312.955 454.272ZM313.803 457.242C311.377 457.934 309.735 459.262 308.878 461.226C308.029 463.217 307.991 465.566 308.763 468.271L310.625 474.796C311.397 477.501 312.666 479.461 314.43 480.677C316.202 481.92 318.302 482.195 320.728 481.503C323.154 480.81 324.791 479.468 325.64 477.477C326.497 475.513 326.54 473.179 325.768 470.474L323.905 463.949C323.133 461.244 321.861 459.27 320.089 458.026C318.324 456.811 316.229 456.549 313.803 457.242Z" fill="white"/>
<path d="M295.795 458.986L300.732 488.945L297.298 489.511L292.856 462.556L281.482 464.431L280.987 461.426L295.795 458.986Z" fill="white"/>
<path d="M275.94 461.865L277.974 492.16L274.502 492.393L272.672 465.136L261.17 465.909L260.966 462.87L275.94 461.865Z" fill="white"/>
<path d="M422.437 129.894C421.145 128.145 420.378 126.35 420.136 124.509C419.918 122.652 420.143 120.809 420.812 118.981L423.99 119.77C423.445 121.326 423.214 122.795 423.297 124.176C423.403 125.539 423.921 126.851 424.851 128.111C427.298 131.423 430.073 131.934 433.175 129.642C434.435 128.711 435.167 127.702 435.372 126.613C435.577 125.524 435.315 124.095 434.586 122.327L433.697 120.171C432.648 117.629 432.258 115.465 432.526 113.681C432.835 111.903 433.934 110.316 435.823 108.92C437.993 107.318 440.125 106.788 442.221 107.331C444.34 107.857 446.227 109.24 447.881 111.479C449.138 113.182 449.875 114.837 450.089 116.445C450.321 118.077 450.079 119.824 449.363 121.686L446.369 120.707C446.883 119.354 447.084 118.088 446.971 116.91C446.898 115.738 446.371 114.487 445.389 113.157C444.286 111.664 443.115 110.763 441.876 110.452C440.655 110.165 439.309 110.564 437.839 111.649C436.65 112.528 435.984 113.506 435.843 114.584C435.719 115.685 436.007 117.076 436.709 118.758L437.598 120.913C438.162 122.263 438.539 123.481 438.728 124.567C438.941 125.636 438.948 126.622 438.75 127.525C438.569 128.452 438.171 129.304 437.557 130.083C436.983 130.867 436.194 131.63 435.191 132.371C432.882 134.077 430.612 134.69 428.383 134.209C426.194 133.735 424.212 132.297 422.437 129.894Z" fill="white"/>
<path d="M435.92 150.504C435.066 149.022 434.562 147.538 434.41 146.053C434.283 144.553 434.533 143.07 435.161 141.604C435.804 140.163 436.849 138.724 438.297 137.288C439.785 135.862 441.698 134.476 444.035 133.13C446.372 131.784 448.518 130.833 450.473 130.276C452.467 129.729 454.249 129.54 455.818 129.707C457.401 129.9 458.797 130.434 460.005 131.312C461.238 132.174 462.282 133.347 463.136 134.83C464.38 136.991 464.914 138.993 464.737 140.835C464.585 142.663 463.783 144.496 462.333 146.336L459.473 144.77C460.631 143.467 461.313 142.154 461.521 140.83C461.768 139.516 461.414 138.03 460.459 136.371C459.301 134.361 457.675 133.222 455.581 132.956C453.526 132.7 451.28 133.275 448.842 134.678L442.962 138.065C440.524 139.469 438.888 141.131 438.053 143.051C437.257 144.982 437.438 146.952 438.596 148.963C439.58 150.672 440.73 151.767 442.044 152.248C443.384 152.714 444.945 152.752 446.728 152.361L446.609 155.642C444.29 155.974 442.23 155.738 440.429 154.935C438.668 154.142 437.164 152.665 435.92 150.504Z" fill="white"/>
<path d="M445.117 167.047L443.761 163.841L471.726 152.013L476.081 162.31C478.035 166.931 476.355 170.365 471.039 172.613C466.552 174.511 463.261 173.951 461.166 170.933L451.336 181.75L449.811 178.144L459.61 167.812L457.136 161.963L445.117 167.047ZM462.826 167.822C463.831 170.199 465.616 170.845 468.18 169.761L470.904 168.608C473.468 167.524 474.248 165.793 473.242 163.416L470.277 156.405L459.86 160.811L462.826 167.822Z" fill="white"/>
<path d="M455.943 198.526C454.966 194.974 455.425 191.886 457.319 189.259C459.213 186.633 462.775 184.6 468.004 183.162C473.232 181.724 477.332 181.649 480.303 182.937C483.274 184.225 485.248 186.645 486.225 190.196C487.202 193.747 486.743 196.836 484.849 199.462C482.955 202.089 479.393 204.121 474.164 205.559C468.936 206.998 464.836 207.073 461.865 205.784C458.894 204.496 456.92 202.077 455.943 198.526ZM458.921 197.706C459.59 200.139 460.902 201.793 462.857 202.669C464.841 203.537 467.189 203.598 469.901 202.852L476.444 201.052C479.156 200.306 481.128 199.057 482.361 197.304C483.621 195.544 483.916 193.448 483.247 191.015C482.578 188.582 481.252 186.932 479.269 186.064C477.313 185.188 474.98 185.123 472.267 185.869L465.724 187.669C463.012 188.415 461.026 189.668 459.766 191.429C458.533 193.181 458.252 195.274 458.921 197.706Z" fill="white"/>
<path d="M460.505 215.498L490.508 210.84L491.042 214.279L464.048 218.47L465.816 229.861L462.807 230.328L460.505 215.498Z" fill="white"/>
<path d="M463.263 235.594L493.575 233.838L493.776 237.312L466.504 238.892L467.171 250.4L464.131 250.577L463.263 235.594Z" fill="white"/>
<path d="M47.2 226.087C46.9076 228.243 46.2068 230.064 45.0977 231.553C43.9598 233.037 42.5141 234.202 40.7606 235.047L39.0307 232.266C40.5061 231.53 41.6953 230.638 42.5984 229.59C43.4728 228.538 44.0152 227.236 44.2257 225.684C44.7793 221.603 43.1451 219.304 39.3231 218.785C37.7713 218.575 36.5425 218.788 35.6365 219.426C34.7305 220.064 33.9228 221.272 33.2135 223.049L32.3491 225.214C31.3295 227.768 30.1017 229.592 28.6658 230.685C27.205 231.745 25.3107 232.117 22.9831 231.801C20.3105 231.439 18.412 230.332 17.2875 228.482C16.1343 226.629 15.7448 224.322 16.119 221.564C16.4036 219.466 17.0294 217.765 17.9963 216.463C18.9671 215.131 20.358 214.047 22.169 213.21L23.6344 215.998C22.3222 216.61 21.2961 217.379 20.5562 218.302C19.7914 219.194 19.2979 220.458 19.0757 222.096C18.8262 223.936 19.0375 225.398 19.7096 226.484C20.3856 227.542 21.6288 228.193 23.4392 228.439C24.9048 228.638 26.0638 228.4 26.9162 227.725C27.7725 227.022 28.5351 225.823 29.2039 224.129L30.0684 221.963C30.6042 220.602 31.1827 219.466 31.8038 218.555C32.3961 217.641 33.0781 216.928 33.8496 216.418C34.6251 215.88 35.5045 215.545 36.4879 215.415C37.4465 215.253 38.5436 215.255 39.7793 215.423C42.6242 215.809 44.6788 216.951 45.9431 218.849C47.1826 220.715 47.6015 223.127 47.2 226.087Z" fill="white"/>
<path d="M51.9504 201.833C51.528 203.492 50.8535 204.906 49.9268 206.076C48.9721 207.24 47.7583 208.127 46.2856 208.74C44.82 209.324 43.0673 209.626 41.0274 209.645C38.9667 209.628 36.6295 209.287 34.016 208.622C31.4025 207.956 29.2011 207.141 27.4118 206.176C25.6016 205.176 24.1928 204.069 23.1854 202.855C22.1852 201.612 21.5582 200.256 21.3046 198.784C21.0228 197.306 21.0931 195.738 21.5155 194.08C22.1312 191.663 23.1451 189.856 24.5572 188.66C25.9411 187.456 27.7944 186.702 30.1168 186.396L31.0735 189.512C29.3356 189.638 27.9304 190.103 26.8577 190.907C25.764 191.676 24.9809 192.988 24.5084 194.842C23.9357 197.091 24.3068 199.041 25.6217 200.692C26.9157 202.309 28.9256 203.464 31.6516 204.159L38.2275 205.834C40.9535 206.528 43.2853 206.479 45.2231 205.686C47.1399 204.857 48.3847 203.319 48.9575 201.071C49.4443 199.16 49.3846 197.574 48.7783 196.312C48.1439 195.043 47.0517 193.927 45.5016 192.963L47.875 190.695C49.7679 192.075 51.0795 193.681 51.8099 195.513C52.5193 197.31 52.5661 199.417 51.9504 201.833Z" fill="white"/>
<path d="M56.6993 184.219L55.4402 187.463L27.1343 176.477L31.1792 166.055C32.9945 161.378 36.5921 160.084 41.9721 162.172C46.514 163.935 48.4859 166.629 47.8877 170.254L62.4755 169.336L61.059 172.986L46.8313 173.577L44.5334 179.497L56.6993 184.219ZM44.5302 171.33C45.464 168.924 44.6333 167.217 42.0379 166.21L39.2803 165.14C36.6849 164.133 34.9203 164.832 33.9864 167.238L31.2321 174.335L41.7758 178.427L44.5302 171.33Z" fill="white"/>
<path d="M70.637 154.483C68.87 157.714 66.3926 159.615 63.205 160.186C60.0174 160.756 56.0446 159.741 51.2865 157.139C46.5284 154.537 43.5295 151.74 42.2898 148.749C41.0501 145.757 41.3138 142.646 43.0808 139.414C44.8478 136.183 47.3252 134.282 50.5128 133.711C53.7004 133.141 57.6732 134.156 62.4313 136.758C67.1894 139.36 70.1883 142.157 71.428 145.148C72.6677 148.14 72.404 151.251 70.637 154.483ZM67.9272 153.001C69.1377 150.787 69.3447 148.686 68.5483 146.697C67.7265 144.694 66.0815 143.018 63.6134 141.668L57.6595 138.413C55.1914 137.063 52.9052 136.59 50.8009 136.992C48.6712 137.381 47.0011 138.683 45.7906 140.896C44.5802 143.11 44.3858 145.218 45.2077 147.221C46.004 149.21 47.6363 150.879 50.1044 152.229L56.0583 155.485C58.5264 156.834 60.8253 157.315 62.9551 156.926C65.0593 156.523 66.7167 155.215 67.9272 153.001Z" fill="white"/>
<path d="M79.0594 139.211L54.247 121.71L56.2528 118.867L78.5768 134.612L85.2209 125.192L87.7092 126.947L79.0594 139.211Z" fill="white"/>
<path d="M91.5334 122.196L68.5609 102.343L70.8364 99.7097L91.5051 117.572L99.0427 108.851L101.347 110.842L91.5334 122.196Z" fill="white"/>
<path d="M217.842 267.562C217.842 266.541 218.219 265.519 219.025 264.713C220.584 263.154 223.164 263.154 224.722 264.713L254.5 294.491L284.277 264.713C285.836 263.154 288.416 263.154 289.975 264.713C291.534 266.272 291.534 268.852 289.975 270.411L257.349 303.037C255.79 304.596 253.21 304.596 251.651 303.037L219.025 270.411C218.219 269.604 217.842 268.583 217.842 267.562Z" fill="white"/>
<path d="M250.469 299.274V208.812C250.469 206.609 252.296 204.781 254.5 204.781C256.704 204.781 258.531 206.609 258.531 208.812V299.274C258.531 301.477 256.704 303.305 254.5 303.305C252.296 303.305 250.469 301.477 250.469 299.274Z" fill="white"/>
</svg>
